<?xml version="1.0" encoding="UTF-8" standalone="no"?>
<svg
   width="15.999522"
   height="16.200346"
   fill="currentColor"
   class="bi bi-mortarboard"
   viewBox="0 0 15.999522 16.200346"
   version="1.1"
   id="svg2"
   sodipodi:docname="mortarboard.svg"
   inkscape:version="1.4 (86a8ad7, 2024-10-11)"
   xmlns:inkscape="http://www.inkscape.org/namespaces/inkscape"
   xmlns:sodipodi="http://sodipodi.sourceforge.net/DTD/sodipodi-0.dtd"
   xmlns="http://www.w3.org/2000/svg"
   xmlns:svg="http://www.w3.org/2000/svg">
  <defs
     id="defs2" />
  <sodipodi:namedview
     id="namedview2"
     pagecolor="#ffffff"
     bordercolor="#000000"
     borderopacity="0.25"
     inkscape:showpageshadow="2"
     inkscape:pageopacity="0.0"
     inkscape:pagecheckerboard="0"
     inkscape:deskcolor="#d1d1d1"
     inkscape:zoom="12.375"
     inkscape:cx="2.5858586"
     inkscape:cy="4.4444444"
     inkscape:window-width="1920"
     inkscape:window-height="1005"
     inkscape:window-x="-9"
     inkscape:window-y="-9"
     inkscape:window-maximized="1"
     inkscape:current-layer="svg2" />
  <path
     d="m 8.2105224,2.2473469 a 0.5,0.5 0 0 0 -0.422,0 l -7.49999997,3.5 a 0.5,0.5 0 0 0 0.025,0.917 l 7.49999997,3 a 0.5,0.5 0 0 0 0.372,0 l 5.8139996,-2.324 v 5.8600001 a 1,1 0 0 0 -1,1 v 2 h 3 v -2 a 1,1 0 0 0 -1,-1 V 6.9393469 l 0.686,-0.275 a 0.5,0.5 0 0 0 0.025,-0.917 z m -0.211,6.413 -6.242,-2.495 6.242,-2.913 6.2419996,2.913 z"
     id="path1"
     style="fill:#ffffff;fill-opacity:1" />
  <path
     d="m 4.1755224,9.2323469 a 0.5,0.5 0 0 0 -0.656,0.327 l -0.5,1.7000001 a 0.5,0.5 0 0 0 0.294,0.605 l 4.5,1.8 a 0.5,0.5 0 0 0 0.372,0 l 4.4999996,-1.8 a 0.5,0.5 0 0 0 0.294,-0.605 l -0.5,-1.7000001 a 0.5,0.5 0 0 0 -0.656,-0.327 L 7.9995224,10.666347 Z m -0.068,1.8730001 0.22,-0.748 3.496,1.311 a 0.5,0.5 0 0 0 0.352,0 l 3.4959996,-1.311 0.22,0.748 -3.8919996,1.555 z"
     id="path2"
     style="fill:#ffffff;fill-opacity:1" />
  <path
     d="M 11.55656,4.0861691 A 0.47148105,0.47148105 0 0 1 11.085079,3.614688 V 0.47148107 A 0.47148105,0.47148105 0 0 1 11.55656,0 h 2.514566 a 0.15716036,0.15716036 0 0 1 0,0.31432071 H 11.55656 A 0.15716035,0.15716035 0 0 0 11.399399,0.47148107 V 3.614688 a 0.15716035,0.15716035 0 0 0 0.157161,0.1571604 h 3.143207 A 0.15716035,0.15716035 0 0 0 14.856927,3.614688 V 2.0430845 a 0.1571605,0.1571605 0 0 1 0.314321,0 V 3.614688 a 0.47148105,0.47148105 0 0 1 -0.471481,0.4714811 z"
     id="path1-0"
     style="fill:#ffffff;fill-opacity:1;stroke-width:0.314321" />
  <path
     d="M 13.239433,2.7829955 15.439678,0.58275059 A 0.15735888,0.15735888 0 0 0 15.217139,0.36021154 L 13.128164,2.4495012 12.296471,1.6174943 a 0.15735888,0.15735888 0 1 0 -0.222539,0.222539 l 0.942962,0.9429622 a 0.15716035,0.15716035 0 0 0 0.222539,0"
     id="path2-9"
     style="fill:#ffffff;fill-opacity:1;stroke-width:0.314321" />
</svg>
