<?xml version="1.0" encoding="UTF-8" standalone="no"?>
<svg
   xmlns:dc="http://purl.org/dc/elements/1.1/"
   xmlns:cc="http://creativecommons.org/ns#"
   xmlns:rdf="http://www.w3.org/1999/02/22-rdf-syntax-ns#"
   xmlns:svg="http://www.w3.org/2000/svg"
   xmlns="http://www.w3.org/2000/svg"
   xmlns:sodipodi="http://sodipodi.sourceforge.net/DTD/sodipodi-0.dtd"
   xmlns:inkscape="http://www.inkscape.org/namespaces/inkscape"
   id="Capa_1"
   viewBox="0 0 63.47 35.22"
   version="1.1"
   sodipodi:docname="logo.svg"
   inkscape:version="0.92.4 (5da689c313, 2019-01-14)">
  <metadata
     id="metadata79">
    <rdf:RDF>
      <cc:Work
         rdf:about="">
        <dc:format>image/svg+xml</dc:format>
        <dc:type
           rdf:resource="http://purl.org/dc/dcmitype/StillImage" />
      </cc:Work>
    </rdf:RDF>
  </metadata>
  <sodipodi:namedview
     pagecolor="#ffffff"
     bordercolor="#666666"
     borderopacity="1"
     objecttolerance="10"
     gridtolerance="10"
     guidetolerance="10"
     inkscape:pageopacity="0"
     inkscape:pageshadow="2"
     inkscape:window-width="1920"
     inkscape:window-height="986"
     id="namedview77"
     showgrid="false"
     inkscape:zoom="6.700738"
     inkscape:cx="30.211305"
     inkscape:cy="19.932966"
     inkscape:window-x="-11"
     inkscape:window-y="-11"
     inkscape:window-maximized="1"
     inkscape:current-layer="Capa_1" />
  <defs
     id="defs4">
    <style
       id="style2">.cls-1{fill-rule:evenodd;stroke-width:.07px;}.cls-1,.cls-2{fill:#1c2355;stroke:#1c2355;stroke-miterlimit:10;}.cls-2{stroke-width:.06px;}</style>
  </defs>
  <path
     class="cls-1"
     d="M27.73,25.86s.53-.33.41-.24c.21-.05.34-.07.38-.07.06,0,.15.14.27.41,1.07-.12.66-.37,1.02-.5-.03-.32.11-.98.57-.75.27.13.42-.07.28-.28-.05-.08-.08-.15-.09-.21.34-.3.96-.08.79.36-.03.06-.1.09-.23.09-.24,0-.33.1-.26.3.17.1.26.22.27.36,0,.06-.1.17-.32.36-.29.24-.06.62.05.91.07.17-.28.99-1.35,1.43-.33.14-.99.2-1.98.21-.6.88-.84,1.21-1.74,1.55-1.07.4-1.62.71-1.64.93-.03.28.28.35.94.19,1.41-.33,3.8-1.21,4.25.31.28.64.08,1.83-.72,2.09-1.37.52-3.26-.92-3.81-.91-.81,1.55-2.15,2.05-4.03,1.49-.45-.13-.89-.23-1.33-.29-.15-.02-.3-.05-.45-.08-.26.3-.58.61-.97.91,0,.02,0,.04,0,.06.14.19.31.29.51.31l-.16.21c-.45.44-1.15-.41-1.38-.22-.03.14.16.28.15.33-.91-.08-.94-.35-1.25-.74-.09-.11-.26-.19-.53-.23v.09c.27.18.36.32.26.41-.17.17-.79-.02-1.85-.58-.17.2-.26.42-.26.65,0,.51-.48-.13-.71-.04l-1.37.5c-.24-.18-.11-.53.38-1.05.18-.19.27-.32.28-.39.04-.45-.22-.47-.79-.07-.68.49-1.52.85-2.35.58-.73-.24-1.63-.43-1.87-1.26-1.35.3-2.83.64-4.16.17-.13-.16-.24-.22-.34-.25-.04.07-.07.14-.1.21l-.48.34c-.19-.06-.33-.05-.41.06-.02.03-.02.36-.05.37l-.48-.43s.14-.06.3-.06c.12-.1.17-.21.15-.3-.44-.22-.3-.54.44-.97.01-.05.02-.1.02-.15-.04-.03-.35-.21-.3-.27-.03-.27-.12-.63.15-.82l.71-.49c.26-.16-.23-.76-.74-.66-.08-.22-.18-.35-.28-.41-.74-.35-1.38-1.17-1.26-2.1.25-.25.37-.42.36-.51l-.59-.48c-.08-.06-.04-.21.14-.43.13-.16.09-.3-.11-.42-.01-.05-.02-.1-.02-.15.09-.12.21-.2.36-.24.27-.07.43.18.2.27l-.02.15c.05.06.09.09.12.09.32,0,.57.26.57.57,0,.03.21.09.63.18.02-.01.03-.03.03-.06l.05-.46c.51-.45.65-.56,1.25-.81.08.05.12.23.12.54l.85-.3c1.16-.63,1.16.67.66.48-.01,0-.05-.07-.11-.19-.02-.03-.04-.07-.07-.1-.03,0-.06,0-.09-.02-.06.02-.1.06-.12.11.15.16.24.29.28.39l1,1.63c.34-.19.71-.5,1.11-.93.12-.12.25-.24.41-.35.21.05.35.11.41.2.18.24.37.47.69.57l.63.69.42.35c.3-.48.5-.72.6-.73l.84-.14c.64-.17,1.17.05,1.62.67l.29.4c.16.22,2.15,1.48,3.15,1.25.62-.42,1.5-.78,2.09.04.55.37.85.46.9.29.3-1.02,1.16-2.19,2.14-2.08.21-.05.33-.14.36-.25.14-.48,1.1-1.17,1.57-.21v.06l-.18.45-.15.44c-.04.12-.18.2-.4.26.17,1.1-.79,2.42-2.02,2.77-.21.06-.43.26-.65.61,0,.08,1.02-.24,1.05-.26l1.76-.77c.1-.04.24-.07.43-.09.03-.15.06-.29.08-.44.13-.92.47-1.81,1.04-2.55.25-.33,1.93-1.26,2.79-.66l.23.16c.35.25,1.18-.39,1.15-.65-.7-.16-.67-.28-.44-.72v-.02h.01ZM25.89,6.3c.37-.09,2.6.08,3.17.1.5.02,1.03-.02,1.03.18l-.08.65c0,.05.36.72.42.6.52-.91.67-1.21.14-1.73-.26-.25-.81-.38-1.07-.37l-2.77.02c-1.23.02-1.79-.28-1.74-.61.51-.08,1.51-.08,3.29.31.98.21,1.51.07,1.58-.44l.07-.48c.02-.11.08-.26.19-.44l.29-.38c.16-.21.39-.9-.03-1.33-.35-.35-6.13-2.18-12-2.33C12.53-.09,7.22.42,2.47,1.59c-1.21.3-1.9.58-2.09.86-.22.34-.13.83.27,1.46l.42,1.3c.02.1.23.49.69.55.18.02.98-.12,2.41-.42.95-.2,1.48-.23,1.58-.09v.09c-.26.21-.57.38-.93.5-.28.09-.45.14-.52.13l-2.69-.18c-.16-.01-1.18.39-1.27.91l.15,1.21.02.02s.01.01.02.02c0,0,.01.01.02.02.3,0,.56-.21.79-.6l-.12-.79c.55-.11,1.13.49,1.71.28.97-.34,2.67-.56,3.53.12.08-.05.5-.51.56-.56.3-.25.42-.52.37-.8-.06-.35-.37-.87-.92-1.56,1.67-.86,12.57-1.25,18-.11-.3.22-.4.36-.58.55-.35.38-.52,1.04-.38,1.53.08.28.34.52.8.72.35.07.77-.31,1.58-.44h0ZM13.23.29c-1.58,0-6.21.6-6.35.63-2.27.37-4.05.75-5.34,1.14-1.13.35-1.41.87-.82,1.58l.29.35c.1.18.16.32.17.42l.04.46c0,.1.05.25.13.43.01,0,.16-.08.46-.24.39-.22.98-.43,1.76-.64,4.65-1.25,10.03-1.68,16.12-1.31,3.61.22,8.16,1.25,9.88,1.86.05-.38.16-.69.32-.93l.27-.41c.41-.61.24-1.07-.49-1.37-1.15-.47-2.94-.92-5.39-1.34C20.02.19,17.74.2,14.53.28h-.48s-.82.01-.82.01h0ZM13.87,9.77h-5.62v10.03c.24,2.01,2.44,6.2,6.52,8.24l.47.18c.15.05,2.11-1.16,2.5-1.48,1.55-1.27,2.99-2.48,4.21-5.23.32-.72.79-1.99.69-3.35v-8.39h-8.76ZM17.43,26.72c.44-.27,2.46-2.06,3.45-3.6.26-.41.43-.66.51-.75l-.03-.12.22-.46c.53-1.16.79-1.96.88-2.95v-8.85c0-.08.04.04,0,0h-13.97v3.38c.01,3.33,0,5.04,0,5.11-.29,4.11,3.84,7.69,4.62,8.33.66.52,1.76,1.13,2.14,1.16.01,0,.35-.13.65-.3.56-.31,1.19-.69,1.52-.96h0ZM12.88,24.66c1.11,1.01,1.9,1.5,2.39,1.54,1.14-.07,4.31-3.05,5.23-5.45.2-.53.31-.68.31-1.24v-7.97h-10.66v7.95c0,.49.73,3.24,2.72,5.17h0ZM10.36,11.71v7.75c0,.63.44,1.81,1.15,3.09,1.38,2.54,3.71,3.45,3.79,3.44l.42-.21c1.27-.68,2.28-1.64,3.04-2.59,1.1-1.57,1.87-2.99,1.87-3.61v-7.88h-9.51c.09.18.87.44.9.45.28.15.46.26.55.33.02.11,0,.2-.05.27-.1.15-.07.32.08.53.24.32.52.35.83.08.3-.26.48-.33.55-.22l-.06.18c-.06.18-.09.35-.09.51v.15c.06.06.23.09.51.09.07.6.25.84.55.71.17-.07.32-.02.44.15.04,0,.08,0,.12.02.26-.22.64-.23,1.16-.03l.26.1.51.05.37.34.42.29c.28.19.45.46.51.8.17-.03.34-.02.51.03.09.03.87.58.95.67.32.38.32.79.03,1.24l-.17.26v.49c-.02.27-.03.43-.07.49-.08.14-.2.24-.36.3l-.46.16c-.18.13-.29.24-.35.33l-.26.41c-.16.15-.28.25-.36.32l-.36.31-.34.34c-.25.24-.41.34-.5.3-.13-.06-.19-.07-.19-.01v.09s.04.03.11.06c.01.03.02.06.02.09-.18.1-.28.2-.33.3l-.18.4-.25.36c-.14.21-.22.49-.24.86-.01.34-.03.54-.06.58-.01.02-.02.04-.03.06-.37,0-.63-.18-.78-.57-.03-.07-.09-1.12-.07-1.21l.13-.47.04-.49.04-.49.14-.47c.08-.21.12-.36.13-.47l.03-.49c0-.12.09-.44.26-.94.01-.04.02-.07.02-.09-.33-.14-.53-.36-.62-.66l-.13-.46c-.06-.2-.12-.35-.17-.44l-.25-.4c-.12-.19-.09-.43.07-.71l.29-.5c.14-.25.23-.45.25-.59.03-.22-.3-.43-.45-.44l-.3-.02-.32-.32c-.18-.11-.32-.18-.41-.21l-.45-.14-.33-.32s-.15-.02-.37.04c-.24.06-.47.02-.68-.13-.33-.22-.58-.58-.74-1.09-.17-.52-.27-.81-.29-.86l-.12-.02.42,1.27s-.03,0-.06.03c-.06.04-.17-.06-.34-.31-.04-.06-.08-.11-.12-.16.13-.1.02-.31-.19-.59-.03-.04-.06-.5-.08-.51h0ZM14.47,29.59s0,.08.04.14c.04.06.05.12.05.17-.02,0-.03.01-.03.03h-.12c-.06,0-.35-.23-.27-.54-.18-.12-.32-.2-.42-.25l-.44-.23c-.26-.14-.62-.46-1.09-.98-.21-.23-.32-.35-.33-.35-.1-.05-.73-.13-.98-.08-.44.08-.69.12-.76.12-.14.14-.3.4-.45.79.13.14.31.16.54.06.05-.19.09-.3.12-.33h.09c.08.26.15.42.22.49.2.2.29.1.29.09v-.42l.02-.04s.01-.03.02-.04c0-.01.01-.03.02-.04h.18v.79c.16.16.4.32.74.51,1.03.57,1.8,1.05,2.32,1.44.24.18.65.62,1.24,1.31.1,0,.5-.15,1.2-.47.56-.25,1.06-.28,1.52-.08.41-.48.6-.94.57-1.39-.14-.05-.4-.2-.78-.46-.5-.34-.8-.49-.91-.44l-.44.19c-.61.26-1.16.32-1.67.17-.32-.09-.48-.13-.48-.12h0ZM5.74,28.07s-1.66,1.13-1.69,1.34c-.03.24.02.46.15.66.09.02.23-.08.44-.3.28-.31.35-.22.23.24.16.11.33.15.51.12.04-.12.12-.21.23-.24.07.03.11.05.11.06v.36c.1.02.17.06.22.11l.09.09.09.02c.05-.14.12-.22.21-.24.17-.05.17.17,0,.66.37.4.75.61,1.15.63.05-.11.16-.22.32-.33.15-.1.22-.16.22-.19-.22-.04-.11-.54.06-.57.08-.02.12,0,.12.03v.45c0,.13.26.1.79-.07l.12-.37.09-.02.07.27c.36.17.8.16.55-.09l-.03-.03-.02-.18s.02-.06.06-.09h.12c.27.91,1.13.95,1.15.88l.09-.45c.04-.19.39-.74,1.04-.82l.02-.09c-.14-.08-.27-.17-.41-.25-.5-.3-.78-.46-.82-.5l-.37-.3c-.2-.07-.35-.12-.46-.13l-.48-.04c-.08,0-.29-.24-.63-.7-.33-.44-.54-.68-.62-.72l-.42-.22-.32-.34c-.07-.07-.2-.14-.39-.2-.16.16-.28.29-.35.38l-.34.41-.42.32c-.25.19-.39.32-.46.43h0ZM21.93,8.72l-.18.05-.07.06c-.2.16-.67.09-.92-.24.02-.04.04-.06.06-.06-.39-.11-.53-.74-.42-1.89.02-.13.14-.22.36-.27,1.05.27,1.55.14,1.48-.39-.06-.05-.16-.07-.3-.06v-.06c.13-.19.7-.04.63.45.49-.17.82-1.17-.35-1.42l-.5-.11c-.5-.11-.8-.24-.92-.39l-.3-.41c-.06-.09-.16-.22-.3-.39-.16.05-.28.16-.35.33h-.02c-.09-.06-.23-.15-.41-.3-.14-.11-.24-.16-.3-.15-.08.11-.12.25-.12.42-.04-.02-.08-.05-.11-.08-.14-.14-.23-.2-.28-.19-.33.26-.36.63-.1,1.11.07.13.1.2.1.22-.17.12-.35.18-.54.18h-.94s-.03.01-.03.03c-.02.51.58.81,1.12.74-.17.14-.41.2-.73.2l-.6-.02-.03-.03s-.07-.03-.15-.01c0,.02,0,.04-.03.05.26.69,1.21.87,1.51.71v.09c-.47.46-.9.66-1.29.61l-.2-.03-.2-.04c-.21-.04-.24.1-.09.42.15.32.41.46.78.44.34-.02.62-.09.84-.21l.26-.14h.06v.12c-.49.46-.96.69-1.42.66l-.66-.03s-.03,0-.03.03c.74,1.6,2.29.54,2.75.06l.15.02c.37.46.58.7.63.71.17.04.33-.09.48-.36h.03s.06.02.06.02l.21.15c.53.38,1.45.14,1.39-.59h0ZM25.93,6.15l3.25.11h.72l.57.09c0-.09-.08-.19-.27-.3-.17-.1-.42-.15-.76-.15h-1.99l-1.22.06c-.3.03-1-.13-1.14-.27l-.42-.41c-.07-.07-.6.22-.91.59,0,.16.07.31.17.43.05.06.22.15.41.23.12.05,1.47-.41,1.58-.39h0ZM30.25,8.35c.06-.15-.01-.37-.1-.52-.14-.23-.44-.54-.62-.65-.2-.12-.55-.53-1.1-.6-.83-.03-1.84-.22-2.78-.03-.31.06-.81.17-.89.48-.09.37.27.6.47.86.21.28-.11.43-.24.51-.45.28-1,.63-1.3.94v.15c0,.05.08.11.24.18.67-.2,1.2-.58,1.84-1.21.11-.19.28-.42.33-.66-.98-.34-.39-1.12.18-.61.4.36.16.83-.15,1.27-.22.3-.58.68-1.78,1.39.13.19.18.28.3.39.09.11.15.05.16-.01-.01-.07-.03-.14-.1-.26-.08-.11.06-.21.13-.1l.18.25c.06.08.18,0,.14-.08l-.14-.27c-.07-.12.12-.22.15-.1.08.11.11.16.17.27.1.15.18.04.16-.06-.06-.11-.1-.19-.15-.31-.09-.11.05-.23.13-.09.06.1.12.18.19.25.09.11.24.03.17-.07-.09-.17-.15-.23-.19-.31-.11-.12.06-.22.14-.1.08.1.14.19.2.29.08.09.25,0,.15-.13-.08-.09-.13-.17-.21-.27-.07-.12.04-.23.15-.1.11.09.17.16.28.28.07.09.21-.02.11-.12-.11-.16-.15-.23-.22-.31-.08-.09.02-.23.13-.13.11.1.23.21.33.32.1.09.22-.02.1-.12-.1-.15-.23-.23-.29-.29-.12-.1.02-.27.12-.15.12.09.23.19.31.25.12.14.29.04.16-.09-.12-.12-.2-.18-.31-.31-.11-.1-.03-.21.11-.12l.33.31c.15.13.28-.01.13-.14l-.36-.31c-.12-.1-.02-.2.09-.14l.47.38c.13.1.27-.05.14-.16l-.49-.37c-.11-.09.01-.19.11-.12l.5.41c.16.11.28-.05.13-.15l-.54-.39c-.1-.08,0-.18.08-.11l.62.4c.14.1.28-.03.12-.15l-.59-.39c-.11-.05-.02-.18.07-.08l.66.41c.13.1.19-.05.13-.08l-.67-.47h.16c.5-.12.94.59.91.83-.02.14-.29.51-.97.87-.43.23-.44.28-1.18.7-.53.43-1.21.75-2.02.96.04.14.07.23.09.27.58,0,1.42-.33,2.53-1.01,1.1-.68,1.78-1.03,2.03-1.05l.46-.04c.18-.02.43-.09.39-.31h0ZM1.33,26.51c-.24,0-.4.25-.48.76-.12.71.35,1.43,1.38,2.14.67.46.99.81.97,1.06-1.35.5-1.35,1.84.07,2.37.35.13,3.24-.1,3.34-.11l.46-.03c.07,0,.11-.11.12-.33,0-.19.04-.35.09-.46h-.09l-1.56-1.31s-.94-.32-1.25-.26l-.55.35s0-.75-.03-.96c-.06-.38-1.16-3.23-2.04-3.23h-.42ZM6.03,6.79c-.06,0-.18-.07-.53-.14l-.83-.03c-.49-.02-.94.02-1.39.22-1.14.5-1.88,1.29-1.43,1.43l.46.14c.76.24,1.77.71,3.01,1.43.62.36,1.06.53,1.3.52,0-.02.01-.03.03-.03,0-.07-.41-.36-1.24-.86-.73-.44-1.15-.91-1.26-1.4-.29-1.29,1.67-.69.5-.09.13.77,1.98,2.08,2.96,2.07.12-.19.3-.36.51-.53,0-.02,0-.04-.02-.06-1.44-.46-2.19-.91-2.25-1.36-.03-.2.03-.37.18-.52.27-.26.4-.42.39-.47-.01-.07-.14-.07-.05-.11-.07-.01-.37-.19-.35-.2h0ZM6.33,6.62c.13-.07.27-.17.41-.28.25-.2.46-.42.42-.56-.03-.12-.85-.42-.88-.42-.03,0-.17.07-.41.2-.73.4-1.16.59-1.28.59l-1.48-.06c-1.11-.05-1.78,0-1.99.12v.09c.51,0,.95.06,1.33.17,1.14.08,2.72-.27,3.88.15h0ZM23.65,5.77c.18-.22.39-.38.6-.5.74-.45,1.97-.43,3.83-.02.54.16,1.07.18,1.41-.06-.75-.4-4.17-1.17-4.82-1.19-.42.4-.82.8-.96,1.19-.07.2-.07.41-.06.59h0ZM20.06,32.22c-1.03.09-1.47.41-1.33.94.08.08.13.12.15.12l1.03.06c.07-.04.14-.17.21-.39l.21.06.04.02s.05.02.08.01c.04.16-.02.23-.18.21v.12c1.1.38,1.93.5,2.49.37,1.38-.33,1.66-1.23,1.65-1.34-.38-.12-.57-.25-.57-.39v-.6s.02-.05.07-.1c.04-.05.06-.09.05-.14-.35-.38-1.55-.05-3.6,1.01.06.02.09.05.09.08v.18c-.06.01-.1.06-.12.14l-.18.02s-.02-.04-.03-.05l-.04-.04-.03-.05v-.21h0ZM7.14,5.49c-.05-.19-.13-.36-.23-.53-.15-.25-.72-.88-.77-.89-.07-.01-.28.02-.64.1-1.97.42-3.21.82-3.74,1.22.02,0,.03.02.03.05.03,0,.11,0,.24.03.12.02.51-.03,1.17-.16,1.56-.3,2.41-.41,2.55-.36l.44.19.48.17.47.19h0ZM27.16,30.77c-.37.03-.83.14-1.38.32-.28.09-.59.16-.92.21-.61.09-.89.26-.82.53.16.13.29.2.39.21l.48.06c.26.03.71.21,1.33.53.25.13.39.2.43.21.56.22,2.26.44,2.51-.51.05-.17,0-1.75-2.02-1.57h0ZM23.18,20.23v-.09l-.03-.03s-.02-.02-.03-.03c0,0-.02-.02-.03-.03l-.06.02c-.03.15-.05.27-.06.34l-.05.35c-.01.08-.08.18-.19.29h-.15s-.07-.11-.06-.18h-.21v.3c0,.25.06.4.18.45l.91-.12c.09-.01.06-.28-.09-.82l-.06-.21.09.02.34.42c.26.32.63.71,1.11,1.17-.27,1.24.06,1.86.97,1.86.01-.04.04-.06.09-.05-.5-1.01-.48-1.59.05-1.75.2-.06.45.02.75.25.2.16.33.17.38.06.11-.24-.04-.51-.45-.82,0-.06,0-.1.03-.12.38.1.6.12.63.06.12-.17-.41-.6-.82-.6l-.26.06-.26.05-.24.1c-.1.04-.47-.17-1.1-.64l-.44-.33h-.79v.03h-.15ZM12,34.58c.18.17.88-.03.88-.65v-.49l.02-.02s.01-.01.02-.02c0,0,.01-.01.02-.02h.12c.08.06.12.14.12.24v.97c0,.05.02.09.06.12h.09l.21-1.21c-.12-.21-.36-.4-.72-.56l-.44-.2c-.53-.24-.8-.61-.8-1.11.24.34.45.57.61.7.11.09.4.23.85.43.38.16.77.41,1.2.74.41-.31-.36-1-.76-1h-.57c-.08,0-.12-.03-.12-.09v-.12c.19-.2.95-.12,1.27.06.66.38.76.85.31,1.41-.07.08-.13.16-.19.25.02,0,.03.01.03.03.41,0,.63-.34.64-.39l.03-.39.02-.02s.01-.01.02-.02c0,0,.01-.01.02-.02h.73c.06,0,.1-.05.12-.14-.02,0-.03-.02-.03-.05-.24,0-.41-.06-.49-.15l-.34-.4c-.33-.39-.86-.52-1.6-.41-.6.09-1.05.02-1.34-.22-.85-.7.11-1.85.76-.92.03,0,.06-.02.08-.05.09-.27-.04-.46-.39-.54-.4-.1-1.86.69-.49,2.44.35.44.53.69.54.73.06.23-.02.46-.22.69l-.25.28v.12h0ZM8.64,31.26c-.87.12-1.26.57-1.15,1.36.26,1.92,3.31,1.49,4.2.45,0-.07-.61-1.37-.68-1.39l-2.37-.42h0ZM20.76,27.99c-.39.09-1.26.84-1.68,2.3-.17.6-.27.92-.29.94l-.27.41c-.14.22.35.53.45.48.16-.14.28-.25.34-.34l.28-.4c.17-.15.3-.24.4-.28l.46-.19c.91-.37,1.95-1.92,1.43-2.3-.07-.05-.11-.09-.11-.11.78-.5,1.03-.92.75-1.28-.26-.32-.89.09-.81.58.1,0,.16.06.18.17-.31.21-.49.32-.54.32-.07-.2-.11-.3-.12-.3-.16-.04-.32-.04-.48,0h0ZM7.82,20.04c-.19.04-.44.06-.74.07l-.37.02c-.09,0-.33.19-.71.57l-.32.31s-.05.01-.12,0l-.34-.23c-.11-.07-.65-.17-.81-.13-.67.15-.55.57-.51.57h.76v.06c-.73.06-.88.51-.76.76,1.58-.46,1.89.64,1.57,1.18-.21.35-.28.55-.21.58.12.05.3.02.56-.11.48-.23.67-.64.58-1.24l-.05-.35-.09-.34c-.04-.14.25-.48.86-1.02.37-.32.61-.52.71-.59v-.12h0ZM25.83,27.21c-.62.06-1.17.33-1.66.81-.85.84-.95,2.27-.94,2.57.07.09.24.13.51.12.28-.41.79-.77,1.51-1.07.19-.08.34-.14.44-.19.83-.37,1.28-.76,1.35-1.16-.18-.03-.3-.09-.36-.18v-.69c-.12-.18-.41-.25-.85-.21h0ZM29.67,25.85c-.17.04-.54.32-1.11.84-.6.55-.97.83-1.1.84l-.47.04c-.07,0-.2.21-.09.33.05.06.39.08,1,.07,2.62-.04,2.78-1.34,2.65-1.72-.12-.35-.67-.44-.88-.39h0ZM16.8,33.28l.15.36.32.23.32.23c.18.13.5-.02.97-.45l-.06-.24v-.02s-.02-.02-.02-.02v-.02s-.01-.39-.01-.39l.07-.18c.03-.08.07-.2.11-.37-.13-.21-.32-.37-.59-.49-.38-.17-.81-.14-1.27.09-.75.37-1.17.56-1.25.58v.09c.05.04.18.1.39.17.07.02.13.05.2.08,0,.03-.02.15-.08.36.08.06.16.09.24.09h.21c0-.07.16-.15.3-.09h0ZM16.8,11.36c.24,0,.33,0,.46-.04l-.05-.08c-.12-.05-.04-.25.23-.62l.09.02.66.68s.16-.16.42-.48l.09.02.11.17c.08.08.07.18-.02.3.02.02.05.03.09.03h.66c.08,0,.11-.02.11-.08-.31-.27-.49-.49-.54-.67l-.11-.41c-.03-.1-.14-.1-.33,0-.02.26-.07.36-.35.66-.11-.11-.21-.22-.32-.33-.38-.4-.64-.51-.81-.35-.07.07-.03.13.11.17.01.08.01.13,0,.15l-.37.57-.25.18c-.06.01-.08.1.11.1h0ZM12.24,5.92l.09.02s.07.04.06.09h.12c.19-.25.26-.41.21-.48l-.33-.45-.33-.45-.12-.54c-.03-.15-.79-.45-.91-.36l-.31.25-.4.07c-.08.01-.2.07-.34.17,0,.21.08.53.24.94l.17.46.26.41s0,.13-.06.3c-.11.32-.15.49-.12.52l.38.39c.1.11.12.29.05.56l.02.56c0,.12.07.18.21.18h.42c.14,0,.2-.07.18-.21l-.15-1.45c-.01-.14.01-.26.08-.36.1-.16.17-.24.23-.24h.09c.1,0,.14.06.12.18h.09l.08-.08c.07-.07.11-.14.11-.2-.02-.03-.03-.05-.05-.08-.05-.08-.08-.13-.09-.16h0ZM13.12,30.53c.33.63-.66,1.23-.82.39h-.18c-.14,0-.19.44-.02.63.05.06.47.25.53.24l.82-.06s.1,0,.26-.02l.26-.02.26-.02.11.08c.19.11.34.14.44.11-.47-.68-1.38-1.29-1.51-1.31l-.15-.03h0ZM15.14,33.84h.39c.21,0,.59.29,1.15.88.06-.04.06-.13,0-.27-.04-.1-.06-.16-.06-.18.02,0,.03-.01.03-.03.06,0,.44.17,1.16.53h.02s0-.05,0-.05l-.39-.31c-.47-.39-.74-.59-.78-.62-.69-.39-1.52-.38-1.52-.18v.24h0ZM19.4,4.7c-.21-.05-.38-.19-.51-.39l-.18-.29-.06-.02s-.02.03-.03.06c-.07.33.11.66.54.98-.29.19-.59.29-.91.29h-.85v.06c.18.2.5.26.95.18.39-.06.52.04.41.3-.22.3-.59.45-1.12.45h-.3v.09c.42.22,1.21.13,1.72-.41-.06-.14-.1-.21-.12-.23.06-.31.29-.57.68-.79l-.02-.54s.07-.11.06-.24c-.17-.18-.28-.27-.3-.27h-.09s.01.18.08.54l.04.21h0ZM18.86,6.51l-.3.39c-.3.39-1.19.76-1.28.77l-.5.05s-.03.03-.06.08c.08.23.34.3.79.23.66-.12,1.53-1.08,1.54-1.24.02-.18,0-.27-.06-.27h-.12ZM28.43,24.73h.09c.6-.53,1.07-1.78,1.41-3.76l.08-.45.12-.44c.62-2.2.74-5.37.41-5.9l-.18.02-.14.14c-.08.09-.19.16-.32.23,0,.04,0,.09.01.15.09.46.16,2.94-.1,4.11-.02.09-.06.24-.11.44-.13.52-.2.82-.21.89l-.05.45s-.01.03-.03.03h-.06l-.02-.02s-.02-.01-.04-.01c.11-.53.17-.84.19-.93.12-.51.2-1.46.24-2.82.02-.61.03-.93.03-.95l.08-.47s-.03-.06-.09-.12l-.03-.03v-.76s-.09-.09-.27-.21c-.04.01-.08.02-.12.02-.01.04-.04.06-.09.05.18,1.03.15,2.76-.09,5.19-.04.44-.08.91-.12,1.41-.06.9-.17,1.68-.32,2.33-.22.94-.32,1.4-.29,1.4h0ZM21.48,5.04l-.28.37-.34.32c-.07.07-.18.17-.32.31l1.03.21h.18s.06,0,.06-.03v-.06l-.82-.18v-.09c.61-.39,1.14-.47,1.61-.24.47.23.08-.61-.92-.61h-.21ZM17.14,8.98c-.2.03-.33.05-.39.05-.03.13.09.22.36.27,1.65.31,2.47-1.99,1.3-.97l-.36.31-.45.17-.45.17h0ZM4.08,27.09c-.07-.01-.61.77-.57.97.19,0,.22.17.09.48.07.06.11.11.12.15l.05.19c.02.08.07.13.13.14.04,0,.2-.09.48-.3l.41-.31c.62-.44.89-.69.82-.74l-.32-.25-.21-.37c-.05-.08-.15-.18-.3-.3.02.33-.22.44-.71.35h0ZM1.85,20.83l.24.21-.12-1.84-.21-4.6c-.07-.07-.41-.04-.64.19-.08.8-.08,1.98,0,3.52l.21,2.88c-.38-.84-.57-2.76-.57-5.77,0-.64-.15-.93-.45-.85-.2,1.41-.05,3.42.45,6.03.42,2.22.87,3.54,1.35,3.97.23,0,.27-.39.14-1.15-.09-.48-.16-1.76-.4-2.59h0ZM15.74,13.94v.09c.14.08.82.16.82,0v-.12l-.39-.22-.37-.26c-.22-.16-.35-.24-.37-.25-.22-.07-.52-.04-.89.09.15.14.26.23.35.26l.5.15c.11.03.27.09.49.16v.06s-.05.03-.15.03h0ZM7.23,23.01l1.63.36c.27.06.37-.02.3-.24-.31-.18-1.85-.59-1.94-.41-.09.17-.08.27,0,.29h0ZM26.34,16.33l.09-1.87c.01-.26-.02-.39-.09-.39h-.09c-.06,0-.09.22-.09.65-.02,1.58-.25,2.86-.69,3.86l-.23.43c-.4.75.15.55.31.31l.25-.39c.41-.64.68-1.19.82-1.66.31-1.02.46-1.94.46-2.76,0-.33-.02-.51-.06-.53-.07-.04-.3.11-.3.15v.85c0,.29-.1.74-.3,1.36h-.06ZM18.55,24.06s-.11-.03-.23.08l-.7.7s-.08.07-.1.09c-.03.02-.06.04-.08.06-.03.03-.06.06-.06.17,0,.1.03.2.08.25.07.08.16.04.21,0,.03-.03.05-.07.05-.11,0-.03-.01-.05-.03-.08-.02-.09.01-.18.12-.28.14-.14.17-.14.2-.11.02,0,.03.03.11.1.06.05.1.09.17.16.22.22.22.24.21.27,0,.03-.03.08-.05.11-.02.05-.02.09,0,.11.03.03.11.07.49-.3.2-.2.27-.3.3-.35.05-.09.05-.14.03-.16-.02-.02-.06-.02-.12,0-.01,0-.05.04-.09.05-.03,0-.06,0-.27-.21-.32-.33-.27-.37-.27-.37,0-.03.01-.05.02-.09.03-.07.03-.1,0-.11h0ZM24.46,14.25l.08-1.08c-.02-.73-.27-2.27-.5-2.61-.41-.6-.78-.9-1.1-.88,0,.02-.01.03-.03.03-.09.29-.07.45.05.48.76.49,1.16,1.33,1.19,2.54.02.62-.18,1.5-.59,2.64l-.59,1.68c-.19.56-.31,1.26-.25,1.9.12,1.19,2,1.36,1.79.13-.09-.56-.74-.57-.85-.27h-.15c-.13-.34-.1-.89.09-1.67.01-.05.28-1.13.86-2.89h0ZM6.82,19.71c.6.17,1.17-.34,1.25-1.14.03-.26,0-1.18-.45-2.69-.44-1.45-.6-2.67-.46-3.68.08-.57.25-1,.52-1.28l.32-.33c.13-.14.16-.29.09-.45-.07-.14-.74.2-1.09,1.19-.42,1.17-.36,2.89.19,5.16.28,1.15.32,1.84.12,2.05-.02,0-.1-.03-.24-.09-.76-.31-1.18,1-.25,1.27h0ZM11.09,4.03l-.23.22-.31.06c-.07.01-.16.05-.28.12-.01.26.1.6.35,1.03l.25.43c.09.16.08.36-.02.59-.06.13-.08.22-.06.24l.31.39c.04.23.06.41.07.53l.02.53c0,.18.27.07.27,0v-.6c0-.06-.04-.27-.13-.64l-.08-.33.3-.36.29-.41.29-.41s.02-.1,0-.21c-.02-.13-.08-.24-.17-.34l-.25-.28-.03-.38s-.08-.07-.23-.13l-.13-.05h-.21ZM9.82,6.69h.27c.28,0,.44-.66.36-.79l-.27-.44-.21-.48c-.04-.1-.12-.26-.22-.46-.22-.02-.88.38-.94.94-.02.2,0,.3.06.3h.48s.06,0,.06.03v.15c-.36.13-.63.25-.82.36v.12c.55.18.95.27,1.21.27h0ZM12.62,24.72s.04-.09-.05-.2l-.58-.73s-.09-.11-.12-.17c-.02-.02-.03-.05-.05-.07-.03-.03-.06-.06-.16-.05-.1,0-.21.03-.25.07-.07.05-.06.13-.02.19.03.03.06.04.11.05.02,0,.06,0,.08,0,.11,0,.19.04.3.17.02.02.03.03.05.06.07.08.1.12.09.14,0,0,0,.06-.11.15-.07.06-.1.05-.1.05-.02,0-.05-.02-.09-.06-.04-.05-.04-.09,0-.12.04-.04.05-.05.05-.08,0-.03-.02-.07-.03-.09-.04-.04-.12-.11-.33.06-.2.16-.15.26-.12.31.02.03.05.04.08.05.05,0,.07-.03.1-.04.03,0,.06,0,.1.05.07.09.05.11-.05.18-.09.08-.11.07-.12.07,0,0-.03,0-.05-.03-.02-.02-.05-.05-.09-.1-.1-.13-.12-.21-.12-.29,0-.04.01-.07.02-.1,0-.04-.02-.07-.04-.09-.05-.06-.12-.09-.22,0-.13.11-.1.26-.08.29.02.02.04.04.06.06.02.02.04.04.07.09l.58.71s.05.06.07.09c.07.09.14.1.18.08.07-.05-.01-.15,0-.21,0-.01-.01-.07.28-.29.25-.21.32-.23.38-.21,0,0,.11.1.17.04h0ZM22.14,22.75c1.07,0,1.53-.08,1.43-.4-.05-.17-.48-.22-1.28-.16-.34.02-.51.12-.5.3,0,.18.16.27.35.27h0ZM27.53,17.32h-.09v-.63c0-.48.03-.84.08-1.09.13-.61.16-1.04.07-1.27-.1-.26-.2-.35-.3-.24l-.02.02s-.01.01-.02.02l-.02.02v.48s-.04.34-.13.94c-.03.19-.05.51-.07.95-.05,1.26-.23,2.37-.55,3.33-.14.41-.18.63-.13.65.2.09.53-.39.98-1.43.9-2.08.74-4.92.71-4.94-.1-.07-.24-.03-.42.12.08.35.12.55.12.6v.33l-.18,1.18.03.76c0,.07-.02.1-.06.09v.12h0ZM24.59,18.02c.27-.06.57-.42.89-1.08.5-1.02.69-2.77.44-2.94-.17.12-.31.14-.4.08-.08-.06-.16-.07-.23-.05-.02.08-.06.41-.12.99-.09.79-.3,1.6-.62,2.42-.14.36-.2.55-.18.57.03.03.11.04.23.01h0ZM19.38,22.94s-.06.08-.1.11c-.02.03-.06.09-.11.13-.06.07-.14.16-.16.18-.05.04-.08.08-.13.12-.15.17-.18.28-.19.38-.01.1.02.22.11.3.08.07.23.08.34,0,.04-.01.06-.03.07-.02,0,0,0,.02,0,.03,0,.03-.01.04,0,.08,0,.05.02.13.08.17.12.12.31.12.55-.15.08-.08.14-.17.22-.26.09-.09.14-.13.15-.15.03-.04.08-.08.11-.11.08-.09.07-.15.03-.19-.01-.02-.05-.03-.09,0-.03,0-.04.01-.07.02-.05.02-.08-.02-.24-.16-.27-.24-.37-.37-.37-.37-.01-.06-.01-.05,0-.1.01-.06,0-.09-.02-.1-.03-.04-.11-.03-.2.07h0ZM10.82,8.81s.05-.03.09-.09c.06-.14-.02-.24-.24-.3-.12-.03-.58.27-1.39.91-.08.06-.05.1,0,.09.46.18.73.25.82.16l.23-.27c.18-.19.41-.4.5-.5h0ZM8.37,22.07v-.09c0-.25-.35-.44-.48-.16-.05.1-.08.19-.09.19h-.09v-.02s-.03,0-.03,0l-.06-.38c-.33-.07-.58.59-.36.74.1.1,1.63.55,1.63.27v-.45c0-.17-.17-.2-.51-.09h0ZM17,25.47c-.3.19-.28.26-.26.29.02.03.05.04.11.03.05-.02.07,0,.08,0,.01.02.01.04-.03.07,0,.01-.06.06-.17.13-.22.15-.28.16-.3.12-.02-.03.02-.05.03-.08.03-.03.04-.07.02-.09-.02-.03-.06-.04-.13-.02-.02,0-.13.05-.36.2-.23.14-.26.21-.28.23-.03.04-.02.08,0,.11.02.03.05.03.08.03.03,0,.06-.02.09-.02.01,0,.03,0,.12.04.11.05.21.11.32.16.46.22.56.23.56.23.15.03.26,0,.35-.06.13-.09.18-.2.11-.3-.01-.01-.02-.02-.02-.03-.05-.09-.06-.15-.08-.34-.01-.22-.02-.45-.02-.5,0-.07.01-.08.03-.11.03-.02.06-.06.07-.09.01-.03.01-.05,0-.07-.03-.02-.05-.04-.09-.03-.02,0-.08.02-.24.12h0ZM20.91,20.01c-.08.2-.09.29-.09.31,0,.05.03.08.06.09.02,0,.05.01.1-.02q.06-.04.12-.03s.11.03.13.04c.06.03.06.04.06.06,0,0,0,.03-.04.15-.06.15-.07.16-.15.13-.15-.06-.17-.09-.18-.1-.02-.03-.01-.07-.03-.1,0-.02-.02-.04-.05-.04-.03-.01-.06,0-.1.03,0,0-.03.03-.07.11-.03.05-.05.11-.08.18-.04.09-.07.18-.08.28,0,.05,0,.09.05.11.03,0,.05,0,.09-.01.03-.02.05-.05.09-.05,0,0,.01,0,.13.03.04,0,.14.05.21.08.1.04.2.08.27.11.11.05.11.06.11.1.01.04,0,.1.06.12.04.02.08,0,.13-.06.01-.02.08-.13.13-.27.13-.32.06-.36.02-.38-.03,0-.05,0-.08,0-.02.02-.04.04-.07.04-.02,0-.04.02-.14-.02-.01,0-.02,0-.03,0-.06-.02-.08-.03-.01-.2.06-.15.08-.16.14-.14.15.06.15.08.16.09.02.04.01.08.04.11.01.02.02.03.04.03.04.02.08,0,.12-.04.01-.01.06-.08.13-.26.05-.14.08-.26.08-.28.01-.08-.02-.12-.05-.13-.02,0-.05,0-.08,0-.03.02-.05.05-.09.06-.01,0-.02,0-.11-.02-.04-.01-.17-.06-.24-.09-.04-.02-.19-.08-.25-.11-.11-.05-.11-.05-.12-.12-.01-.04-.01-.09-.06-.1-.03-.01-.07,0-.11.04-.02.02-.08.1-.14.26h0ZM14.55,26.1c-.12-.06-.22-.08-.26-.08-.05,0-.08.02-.1.04-.01.02,0,.05.01.08.02.02.04.04.05.07,0,0,0,.01,0,.05,0,.03-.03.07-.03.11-.03.17.03.24.1.32.03.03.02.03.02.04,0,0,0,.01-.02.01-.01,0-.03,0-.04,0-.1,0-.2.05-.26.15-.07.14,0,.36.28.5.11.05.22.11.33.16.1.05.19.11.28.16.16.08.21.05.23.01,0-.03.01-.05-.01-.1-.03-.05-.04-.06-.01-.15,0-.01.03-.09.13-.29.12-.21.18-.31.22-.34.04-.03.12,0,.15-.05.05-.1-.13-.21-.28-.28-.22-.12-.3-.13-.32-.13-.05,0-.08.02-.09.04-.01.03-.01.05,0,.08,0,.01.02.03.03.05.01.03.01.06-.06.21-.05.09-.07.08-.1.06-.03-.02-.06-.05-.07-.09,0-.02,0-.03,0-.12.01-.07.04-.14.04-.21,0-.13-.04-.22-.23-.31h0ZM20.32,21.48c-.18.29-.14.35-.11.36.03.02.06.02.11-.03.05-.03.05-.03.06-.02.02,0,.02.03,0,.08.01,0-.02.08-.09.18-.14.22-.18.25-.21.22-.04-.02-.02-.06,0-.09,0-.04-.01-.08-.03-.09-.02-.02-.07-.02-.12.03-.02.02-.1.1-.25.32-.14.23-.15.29-.15.33,0,.04.02.09.04.1.03,0,.05.02.09-.02.02-.02.04-.03.07-.05,0,0,.03-.01.12-.02.11,0,.24,0,.36.01.5,0,.61-.02.61-.02.14-.04.23-.1.28-.19.09-.13.07-.25-.03-.32,0,0-.02-.02-.02-.02-.09-.05-.12-.1-.22-.27-.1-.19-.21-.39-.23-.43-.02-.05-.02-.08-.03-.12.01-.02.04-.08.03-.1,0-.04-.02-.06-.03-.07-.02-.01-.06,0-.09,0,0,.02-.07.06-.16.22h0ZM2.78,18.5l.06,1.48c-.3-.98-.45-2.64-.45-4.98v-.46c0-.06-.29-.36-.43-.21-.05.05.09,4.08.21,4.65.27,1.31.85,2.87,1.07,2.87h.09c.27-.69.27-1.37,0-2.05l-.18-.46s.02-.24.12-.59c.14-.5.08-.93-.17-1.28l-.16-.22s0-.26.09-.63c.06-.25.08-.43.04-.55-.07-.26-.12-.54-.06-.79-.02-.48.04-.72-.15-.96-.27-.1-.34.27-.29,1.19.04.77.11,1.76.21,2.97h0ZM4.17,13.91v.24l.07.98c.05,1.9.15,2.47.6,3.33.29.57.59.92.9,1.04,0-.01,0-.03.01-.04l-.16-.57c-.09-.23-.14-.72-.16-1.47l-.21-.45-.32-3.11h-.15c-.08,0-.12.06-.12.18l.24,3.02s-.02.04-.08.03c-.03-.16-.12-.97-.27-2.41l-.05-.48c-.01-.1-.11-.19-.3-.28h0ZM14.02,25.76c-.27-.22-.33-.18-.36-.16-.02.02-.02.05.02.1.03.06.03.06.02.08-.02.01-.04.02-.08,0-.01,0-.08-.05-.16-.13-.21-.17-.24-.22-.21-.24.03-.04.05-.02.09,0,.05.02.07,0,.1-.01.02-.02.02-.07-.02-.14-.02-.02-.09-.1-.3-.28-.21-.17-.28-.19-.31-.2-.05-.02-.09,0-.11.02-.02.03-.02.05,0,.09.01.03.04.04.04.07,0,.02.01.03,0,.12,0,.13-.03.25-.05.37-.07.5-.05.6-.05.61.02.15.08.24.16.31.12.1.25.1.32.02.01-.01.02-.02.02-.03.07-.08.12-.09.31-.17.19-.07.42-.16.46-.16.06-.03.08-.01.12-.01.03.03.07.04.11.05.03,0,.05,0,.06-.03.02-.02.03-.06,0-.1,0,0-.05-.08-.19-.19h0ZM11.59,23.46s.04-.12-.06-.24l-.61-.75s-.07-.09-.08-.11c-.01-.03-.03-.07-.05-.09-.02-.03-.06-.06-.16-.08-.1,0-.2,0-.26.06-.08.07-.06.16-.01.22.03.03.06.06.11.06.03,0,.05-.01.07-.02.09-.01.17.03.27.14.12.15.11.19.08.23,0,0-.03.02-.11.1-.06.05-.1.09-.19.16-.23.19-.25.19-.28.18-.04,0-.08-.05-.11-.06-.05-.03-.09-.03-.1-.01-.04.02-.1.1.24.51.17.21.27.3.31.32.07.06.12.06.15.03.03,0,.03-.06,0-.12,0,0-.03-.06-.03-.1,0-.02.02-.05.23-.23.36-.28.4-.24.4-.24.03,0,.05.03.08.04.06.03.1.03.11,0h0ZM23.55,25.96c.4-.09.6-.23.6-.43.06-.23.07-.42,0-.66,0-.48-.14-.67-.41-.57-.05.02-.07.12-.06.29,0,.12.02.2.02.24l.02.24c.03.32-.11.46-.42.42-.09-.03-.14-.23-.15-.3v-.36c0-.07-.05-.17-.12-.29-.19-.04-.31,0-.36.14-.03.07.04.84.05.88.1.37.37.5.82.4h0ZM6.82,25.59c.45.07.72-.07.82-.45.01-.04.08-.82.05-.88-.05-.13-.17-.17-.36-.12-.08.13-.12.23-.13.3v.36c0,.07-.05.27-.14.31-.31.06-.45-.07-.42-.39l.02-.24s0-.12.02-.24c.01-.17,0-.27-.06-.29-.27-.09-.41.11-.41.59-.07.25-.06.44,0,.66,0,.19.2.33.6.39h0ZM14.67,11.36c.13,0,.23-.03.26-.04.05-.03.06-.05.06-.08s-.01-.05-.05-.06c-.03-.01-.05-.02-.08-.03,0,0-.01-.01-.02-.05-.01-.03-.01-.08-.02-.11-.05-.17-.13-.2-.23-.24-.03-.01-.03-.02-.03-.03,0,0,0-.02.01-.02,0,0,.02-.01.03-.02.09-.05.15-.14.15-.25,0-.16-.15-.32-.45-.32-.12,0-.23,0-.35,0-.11,0-.21,0-.31,0-.17,0-.2.05-.2.1,0,.03,0,.05.05.08.04.03.06.03.07.12,0,.01.01.1.01.32,0,.24-.01.35-.04.4-.03.04-.11.05-.11.12,0,.11.2.12.36.12.24,0,.31-.03.33-.03.04-.02.06-.05.06-.08s-.01-.05-.04-.06c-.01,0-.03-.02-.05-.03-.03-.02-.04-.05-.04-.22,0-.1.02-.1.06-.1s.07.02.1.05c.01,0,.02.03.05.11.02.07.03.14.06.2.06.11.13.16.33.16h0ZM3.05,26.22s.07,0,.1,0h.05s.57-.17.57-.17h.39c.09,0,.18.21.18.24v.39c-.06,0-.09.01-.09.06v.12s.02.03.06.03h.09s.03-.07.05-.22c0-.05.02-.11.04-.18.07-.25.09-.42.06-.51-.22-.62-1.27-.16-1.33-.05l-.18.28h0ZM3.64,14.64l.41,3.77-.25-.4-.17-1.22c-.02-.11-.05-.62-.09-1.55-.02-.43-.07-.77-.13-1.02h-.15c-.18,0-.14.98.1,2.95.24,1.9.61,2.89,1.1,2.97.13.02.19-.03.18-.15l-.09-.47c-.01-.08-.05-.4-.1-.96-.02-.28-.04-.44-.05-.48l-.14-.46c-.03-.11-.06-.43-.08-.96-.01-.27-.05-.51-.11-.72-.03-.08-.15-.29-.09-.51.08-.56.02-.94-.17-1.39-.13,0-.19.2-.18.6h0ZM10.35,21.48s.09-.07.06-.18l-.22-.75c-.02-.06-.03-.13-.04-.19,0-.03,0-.05-.01-.08,0-.03-.02-.06-.12-.1-.09-.02-.2-.02-.25,0-.08.03-.11.1-.1.15.01.03.03.05.07.07.03,0,.04.02.08.02.1.04.15.1.19.23,0,.03.01.04.02.06.02.1.03.14.02.16,0,0,0,.04-.17.09-.08.02-.1,0-.11,0-.01,0-.02-.02-.04-.07-.02-.06,0-.09.05-.11.05,0,.07-.02.07-.04.02-.03.03-.06.02-.08,0-.05-.05-.13-.31-.06-.26.08-.26.17-.24.21,0,.04.02.06.04.07.04.02.08,0,.11,0,.03-.01.05.02.07.07.03.09,0,.1-.12.13-.12.03-.13.02-.13,0-.01,0-.02,0-.04-.03,0-.03,0-.06-.04-.12-.03-.14-.01-.21.02-.27.02-.03.05-.04.05-.08,0-.03.01-.05.01-.07-.03-.06-.08-.11-.19-.07-.16.05-.2.18-.2.21.01.02.03.04.04.07,0,.03.02.04.03.09l.21.77s.01.05.03.08c.02.09.08.13.13.11.07-.03.04-.13.09-.16,0,0,0-.06.36-.15.31-.09.39-.09.42-.05.01.01.08.1.14.08h0ZM20.76,5.01s-.01-.15-.06-.09c-.15.41-.57.32-.59.29l-.23-.04c-.29,0-.7.47-.63.62.04.08.17.03.41-.17.06-.09.11-.17.17-.12l.05.26c.09.16.2-.21.32-.28l.33-.18c.11-.06.21-.17.23-.3h0ZM.79,14.06h.48c.24,0,.39-.46.43-1.37l.02-.51.04-.51c.05-.69.03-1.05-.06-1.09-.05-.02-.12-.03-.22-.02-.02.15-.04.5-.07,1.03-.06,1.08-.18,1.74-.35,1.99-.04.02-.09.02-.15,0-.13-.23-.18-.48-.15-.76l.24-2.6c-.2-.11-.32-.15-.36-.12-.03.02-.05.03-.06.03l-.24,3.38s.22.54.45.54h0ZM5.83,16.56l-.15-.27c-.07-.95-.3-2.27-.45-2.49-.15-.12-.2.05-.15.52.15,1.38.32,2.28.52,2.7.34.75.6,1.13.75,1.13h.13c.05,0-.02-.37-.24-1.12-.18-.62-.29-1.26-.34-1.91-.07-.29-.08-1.49-.4-1.4.1.63.33,2.25.33,2.85h0ZM22.07,26.22c.28-.05.55-.27.54-.48l-.07-.95c0-.26-.36-.28-.39-.02l.04.83c-.01.22-.47.44-.53,0l-.04-.44c-.03-.23-.44-.44-.44-.07v.34c0,.32.01.51.04.56.15.31.56.33.84.24h0ZM8.29,25.77c.28.07.69.03.84-.29.03-.05.04-.24.04-.57v-.34c0-.38-.41-.14-.44.09l-.04.44c-.05.45-.51.25-.53.03l.04-.83c-.02-.25-.38-.22-.39.04l-.07.96c0,.22.26.42.54.45h0ZM10.2,11.23s.02.13.4.13c.4,0,.42-.09.42-.12,0-.03-.01-.06-.05-.08-.01,0-.04-.02-.06-.03-.01,0-.05-.04-.05-.18,0-.05,0-.05.07-.05h.09c.19,0,.29-.04.37-.09.11-.07.18-.19.18-.34,0-.22-.17-.38-.51-.38-.16,0-.31.01-.47.01-.09,0-.18,0-.27,0-.12,0-.16.05-.16.1,0,.03.02.06.06.08.03.01.07.01.09.03.03.03.03.09.03.36,0,.39-.02.4-.02.41-.01.03-.01.03-.07.07-.06.03-.06.06-.06.08h0ZM29.95,14.13c.22,0,.69-.26.69-1v-1.66c0-.3-.42-.18-.42.03v1.84c0,.13-.25.33-.44.17-.11-.14-.1-.36-.1-.55l.02-1.22c.01-.5-.46-.41-.43-.12v1.1c-.04.93.17,1.39.68,1.41h0ZM12.47,11.36c.42,0,.69-.26.69-.63s-.27-.63-.69-.63-.68.26-.68.63.27.63.69.63h0ZM3.27,27.56h.12l.17-.24c.06-.08.11-.16.17-.24l.17-.24.2-.21v-.23c0-.18-.45-.08-1.36.29-.02.15.04.27.19.38l.26.19c.07.05.1.15.1.31h0ZM29.94,10.96c.37-.08.59-.49.62-.79.03-.38.09-.89.04-1.25-.07-.15-.16-.24-.35-.11-.06.19-.03.37-.03.47l.02.47c-.04.2-.04.38-.13.47-.31.19-.39.04-.42-.38l-.03-.26s.01-.09,0-.25c-.02-.23-.05-.31-.11-.31-.26.06-.25.36-.25.79.01.28.06.55.16.81.11.25.13.37.49.36h0ZM20.62,25.76c0,.19-.29.39-.36.14-.07-.24-.13-.37-.18-.38-.08-.03-.17,0-.26.06-.05.04-.05.16-.02.37.05.3.15.48.31.53.04.01.62,0,.83-.24.1-.11.15-.4.17-.85,0-.22-.02-.35-.09-.38-.26-.12-.39.13-.39.75h0ZM9.75,25.23c0-.61-.13-.86-.39-.72-.07.03-.1.16-.09.38.01.45.07.73.17.84.21.23.79.21.83.2.16-.06.27-.24.31-.55.03-.21.03-.34-.02-.37-.09-.07-.17-.08-.26-.05-.05.02-.11.15-.18.39-.08.25-.36.07-.36-.12h0ZM2.27,25h.09c.32,0,.51-.11.54-.33.02-.12,0-.18-.06-.18h-.18l-.21.15-.26.05c-.41.07-.62.22-.62.44v.42c0,.08.24.28.36-.09l.27-.02c.02-.07.05-.11.09-.11l-.03-.33h0ZM21.04,15.22s-.07.04-.08.08c0,.03,0,.05,0,.11v1.01c0,.11,0,.17,0,.23,0,.03,0,.07,0,.09,0,.13.17.25.3.25s.16-.09.16-.17c0-.03,0-.06-.03-.1-.04-.05-.1-.07-.15-.13-.03-.04-.05-.1-.05-.24,0-.09,0-.19.04-.19.02,0,.05.02.07.04l.75.62s.07.04.08.04c.05,0,.08-.04.08-.13v-1.07c0-.07,0-.13.01-.16,0-.03,0-.05,0-.07,0-.02,0-.04-.05-.1-.08-.1-.19-.16-.26-.16-.11,0-.16.1-.16.18,0,.04,0,.07.04.11.04.05.1.05.14.12.03.05.05.11.05.19,0,.16-.03.17-.05.17,0,0-.02,0-.04-.02l-.79-.69s-.05-.04-.07-.04h0ZM28.49,19.08v-1.42c0-.14.02-.91.06-2.33.02-.7-.03-1.05-.15-1.05h-.12l-.05.9s.02.19-.03.62l.05.9-.16.5-.06.57c-.04.36-.06.55-.06.57l.02,1.24.03.15c.03.13.04.24.04.3v.85l-.15,1.21.02.02c.24.24.7-.86.86-1.56.33-1.4.48-5.95.31-6.18-.05-.07-.18-.04-.41.08.07.19.08.95.03,2.26-.05,1.35-.12,2.14-.21,2.39h-.03ZM20.95,17.32c0,.39.07.41.12.41.03,0,.06-.02.07-.09.02-.06.03-.06.05-.06.02,0,.04.01.05.06,0,.02.01.09.01.23,0,.29-.02.35-.06.35-.03,0-.04-.05-.05-.08-.01-.05-.04-.08-.07-.08-.03,0-.06.03-.08.11,0,.03-.03.16-.03.45s.03.37.04.39c.02.05.06.08.08.08.03,0,.06-.03.07-.07,0-.03,0-.07.03-.09,0,0,.02-.03.09-.09.11-.07.21-.14.31-.21.43-.29.5-.38.5-.38.1-.12.13-.24.13-.36,0-.17-.08-.29-.19-.29h-.03c-.1,0-.16-.03-.33-.13-.18-.11-.39-.24-.43-.27-.06-.04-.06-.06-.08-.1,0-.03-.02-.09-.04-.12-.02-.03-.04-.04-.06-.04-.03,0-.06.02-.07.06,0,.02-.03.1-.03.3h0ZM20.95,13.57c0,.35.07.37.11.37.03,0,.06-.02.08-.09.02-.05.03-.05.04-.05.02,0,.04.01.05.05,0,.02.02.09.02.22,0,.27-.02.32-.06.32-.03,0-.04-.04-.05-.07-.02-.05-.04-.07-.07-.07-.04,0-.07.03-.09.1,0,.02-.03.15-.03.42s.03.34.04.36c.03.05.06.07.08.07s.06-.03.07-.06c0-.03,0-.06.03-.09,0,0,.02-.03.09-.08.11-.07.21-.13.31-.19.43-.27.5-.35.5-.35.1-.11.13-.22.13-.32,0-.16-.08-.26-.19-.26h-.03c-.1,0-.16-.03-.33-.12-.18-.1-.39-.22-.43-.24-.06-.04-.07-.05-.08-.09,0-.03-.02-.08-.04-.11-.02-.03-.04-.04-.06-.04s-.05.02-.07.06c0,.02-.03.09-.03.28h0ZM9.94,15.19c0-.14-.03-.25-.05-.29-.03-.05-.06-.07-.08-.07s-.05.02-.06.05c-.01.03-.02.06-.03.08,0,0-.02.02-.05.03-.04.01-.08.02-.11.03-.17.05-.2.15-.24.25-.02.04-.02.04-.03.04s-.02,0-.02-.02c-.01-.01-.02-.03-.02-.04-.05-.1-.14-.17-.25-.17-.16,0-.32.17-.32.51,0,.13,0,.26,0,.39,0,.11,0,.23,0,.35,0,.18.05.22.1.22.02,0,.05,0,.08-.06.03-.05.04-.07.12-.09.01,0,.1,0,.32,0,.24,0,.36,0,.4.04.04.03.05.12.12.12.11,0,.12-.23.12-.4,0-.28-.03-.35-.04-.37-.02-.05-.05-.07-.08-.07-.03,0-.05.02-.06.04-.01.02-.02.04-.03.06-.02.03-.05.04-.22.04-.1,0-.1-.03-.1-.06,0-.04.02-.08.05-.11,0,0,.02-.02.11-.05.06-.03.14-.03.2-.07.11-.06.17-.14.17-.37h0ZM20.95,12.59c0,.13.03.22.05.25.03.05.06.06.08.06s.05-.01.06-.04c.01-.03.02-.06.03-.07,0,0,.01-.02.05-.02.04,0,.07-.01.11-.03.17-.04.21-.13.24-.22.01-.03.02-.03.02-.03.01,0,.01,0,.02.01.01.01.01.03.02.03.05.09.14.16.25.16.16,0,.32-.15.32-.45,0-.11,0-.23,0-.34,0-.1,0-.2,0-.31,0-.16-.05-.19-.1-.19-.02,0-.05,0-.08.05-.03.04-.03.06-.12.08-.01,0-.09.01-.32.01s-.36,0-.39-.03c-.05-.03-.06-.1-.12-.1-.11,0-.12.2-.12.35,0,.24.03.31.03.32.02.04.05.06.08.06s.05-.02.06-.03c.01-.02.02-.03.03-.05.02-.02.05-.04.22-.04.1,0,.1.02.1.06s-.01.07-.05.1c-.01,0-.02.02-.11.04-.07.03-.14.03-.2.06-.12.05-.17.12-.17.32h0ZM9.8,13.73s.14-.02.14-.44c0-.46-.1-.47-.13-.47-.03,0-.07.02-.09.08-.03.07-.03.09-.14.1-.01,0-.15.01-.39.01-.1,0-.18,0-.19,0-.04,0-.06-.03-.06-.05,0-.02,0-.04.07-.09.06-.05.09-.07.09-.09.03-.04.04-.08.04-.11,0-.07-.05-.15-.16-.15-.09,0-.2.05-.27.14-.05.05-.06.09-.06.12,0,.03.01.05.01.08.01.05.01.07.01.11v.65s0,.05-.01.09c0,0-.01.04-.01.07,0,.14.2.26.34.26.1,0,.15-.08.15-.14,0-.11-.11-.18-.15-.22-.04-.03-.04-.04-.05-.05,0,0,0-.02,0-.03,0-.02,0-.06.15-.06h.11c.06,0,.24,0,.36.01.12,0,.14.03.16.07,0,0,.01.07.04.1.02.01.03.02.05.02h0ZM9.77,12.01c.13-.06.16-.13.16-.19s-.03-.13-.17-.19l-.78-.36c-.07-.03-.08-.04-.09-.06-.02-.03-.02-.07-.03-.1-.02-.03-.05-.05-.08-.05-.03,0-.07.02-.09.07,0,.02-.03.09-.03.21,0,.23.08.27.13.27.05,0,.08-.04.08-.04.02-.02.03-.03.04-.03.02,0,.04,0,.12.04.21.09.22.11.22.12,0,.02-.02.03-.1.07-.06.03-.07.03-.16.07-.03,0-.05.03-.08.03-.03,0-.04-.02-.06-.03-.03-.03-.04-.03-.07-.03-.04,0-.08.02-.1.09,0,.02-.03.1-.03.26,0,.23.03.29.04.31.03.05.07.07.1.07s.06-.02.08-.04c.02-.03.02-.07.04-.09,0,0,.02-.02.08-.05l.76-.35h0ZM9.8,18.7s.13-.03.13-.4c0-.41-.09-.42-.13-.42-.03,0-.06.01-.07.05-.01.02-.02.04-.03.06-.01.02-.04.04-.18.04-.04,0-.05,0-.05-.08v-.09c0-.19-.04-.29-.09-.37-.07-.11-.19-.18-.34-.18-.22,0-.38.17-.38.51,0,.16.01.31.01.47,0,.09,0,.17,0,.26,0,.12.05.16.09.16.03,0,.06-.02.07-.06.01-.03.01-.07.04-.09.03-.03.09-.03.36-.03.39,0,.4.02.41.02.03,0,.04,0,.07.07.03.06.06.07.08.07h0ZM21.92,23.1c-.33.05-.5.14-.5.28-.05.16-.06.3,0,.48,0,.35.11.49.34.43.04-.01.06-.08.05-.21,0-.09-.01-.15-.02-.18l-.02-.17c-.02-.23.09-.33.35-.28.08.03.11.17.12.23v.26c0,.05.04.12.1.22.16.04.26,0,.3-.08.02-.05-.04-.61-.04-.64-.08-.27-.31-.38-.68-.33h0ZM9.93,19.47c0-.44-.23-.62-.45-.62-.13,0-.25.07-.31.2-.01.03-.03.04-.08.23-.04.15-.05.15-.05.16-.02.03-.04.04-.07.04-.04,0-.08-.03-.08-.11,0-.1.08-.18.12-.23.04-.04.06-.07.06-.12,0-.07-.05-.12-.12-.12-.11,0-.28.13-.28.22,0,.03.02.06.02.1,0,.04-.01.08-.02.12,0,.06,0,.1,0,.14,0,.32.21.51.4.51.12,0,.27-.06.37-.25.02-.03.05-.11.09-.25.03-.09.03-.09.04-.1.02-.02.04-.03.06-.03.04,0,.08.03.08.14,0,.05-.01.11-.04.16-.02.03-.04.06-.1.11-.05.04-.12.07-.12.15,0,.03.01.06.04.08,0,0,.03,0,.06,0,.06,0,.23-.03.3-.11.04-.04.1-.2.1-.4h0ZM9.93,14.48c0-.19-.04-.29-.05-.3-.02-.03-.05-.04-.07-.04-.03,0-.05,0-.07.03-.02.02-.02.05-.04.07,0,0,0,.04-.37.04-.07,0-.16,0-.31-.01-.11,0-.11-.02-.13-.05,0,0-.01-.03-.03-.05-.02-.01-.03-.02-.06-.02-.03,0-.07.02-.09.06,0,.02-.04.13-.04.31s.04.27.05.29c.02.03.05.05.08.05.07,0,.1-.08.1-.08.01-.02.03-.03.07-.04.01,0,.12-.01.3-.01.32,0,.41.01.43.03.03.02.03.05.04.07.02.02.04.03.07.03.03,0,.07-.02.1-.09,0-.03.03-.14.03-.27h0ZM9.93,16.93c0-.19-.04-.29-.05-.3-.02-.03-.05-.04-.07-.04-.03,0-.05,0-.07.03-.02.02-.02.05-.04.07,0,0,0,.04-.37.04-.07,0-.16,0-.31-.01-.11,0-.11-.02-.13-.05,0,0-.01-.03-.03-.05-.02-.01-.03-.02-.06-.02-.03,0-.07.02-.09.06,0,.02-.04.13-.04.31s.04.28.05.29c.02.03.05.05.08.05.07,0,.1-.08.1-.08.01-.02.03-.03.07-.04.01,0,.12-.01.3-.01.32,0,.41.01.43.04.03.02.03.05.04.07.02.02.04.03.07.03.03,0,.07-.02.1-.1,0-.03.03-.14.03-.27h0ZM1.76,2.46l.59,1.91.23-.07-.33-1.01h.02s.48.96.48.96l.22-.07-.59-1.91-.23.07.3.93h-.02s-.45-.87-.45-.87l-.22.07h0ZM.95,2.69l.57,1.53c.06.16.12.26.17.28.05.02.14.01.27-.04.12-.04.19-.09.21-.15.02-.05,0-.16-.05-.32l-.57-1.53-.25.09.6,1.62s.01.04,0,.06c0,.01-.01.02-.03.03-.02,0-.03,0-.04,0-.01,0-.02-.03-.03-.05l-.6-1.62-.25.09h0ZM25.41,1.46l-.38,1.96.23.04.21-1.19h.03s-.12,1.21-.12,1.21l.13.03.33-1.16h.03s-.25,1.18-.25,1.18l.23.04.38-1.96-.28-.05-.28.87h-.02s.06-.92.06-.92l-.29-.05h0ZM1.6,8.76c-.31-.13-.54-.01-.6.14-.07.19-.17.44-.17.66.04.11.1.2.27.22.07-.08.07-.18.08-.24l.04-.26c.05-.09.08-.19.16-.19.28.04.33.16.3.4v.15s-.02.04-.03.14c-.01.13,0,.19.06.22.22.08.25-.08.29-.31.02-.16,0-.33-.04-.51-.06-.18-.07-.26-.37-.42h0ZM23.14,22.98c-.23.02-.46.17-.45.32l.06.69c0,.19.3.22.32.03l-.03-.6c.01-.16.39-.3.44.03l.03.32c.02.16.37.34.37.07v-.24c0-.23-.01-.37-.03-.41-.12-.23-.46-.26-.7-.21h0ZM11.54,8.84s0-.11-.06-.12c-.23-.05-.39-.14-.43-.06-.09.09-.13.16-.17.21-.04.07-.13.17-.25.3-.15.16-.32.3-.24.33.24.09.42.21.56.19.03,0,.27-.37.59-.85h0ZM28.8,11.11c.36-.23.31-.85.36-1.14.01-.3.09-.74-.03-.92-.06-.06-.17-.06-.26.15-.04.17-.06.29-.06.37l.02.36c-.02.17-.03.31-.09.41-.23.27-.29.19-.32-.13l-.03-.19s0-.17-.01-.29c-.02-.17-.05-.25-.09-.23-.22.1-.28.32-.22.79.01.21.05.51.13.67.09.15.33.3.6.15h0ZM2.18,10.75l-.15-.03c-.12.57-.33,2.8-.09,3.08.17.21.38.22.62.03.23-.17.34-.63.34-1.33,0-.38,0-.68.02-.91.03-.41,0-.62-.05-.63-.15-.06-.24-.04-.24.09,0,.8-.05,1.8-.21,2.38-.05,0-.22-.03-.22-.09-.08-.86,0-1.81-.02-2.59h0ZM27,1.8l-.08.93-.36,1.01.23.05.27-.86h.01s-.11.9-.11.9l.26.06.1-1.07.33-.88-.24-.05-.23.69h-.01s.07-.73.07-.73l-.27-.06h0ZM4.3,1.79l.47,1.94.26-.06-.2-.85h.02s.05,0,.06,0c.02,0,.03.02.03.05l.19.78.26-.06-.17-.7c-.02-.08-.05-.14-.07-.18-.03-.03-.06-.06-.11-.07.04-.04.06-.07.07-.12,0-.05,0-.11-.02-.19l-.07-.29c-.04-.17-.09-.28-.13-.31-.05-.04-.12-.04-.23-.02l-.35.09h0ZM29.56,2.89c.05-.16.07-.27.04-.32-.02-.05-.1-.1-.22-.14-.12-.04-.21-.05-.27-.02-.05.03-.1.12-.15.28l-.39,1.19c-.05.17-.07.27-.04.32.03.05.11.1.24.14.12.04.2.05.25.02.05-.03.1-.12.16-.29l.39-1.19h0ZM13.26,8.81c.1.3.27.63.39.82.22,0,.4-.04.54-.15,0-.05-.04-.18-.15-.38l-.29-.55-.17-.36c-.04-.08-.15-.14-.33-.16l-.03.02s0,0,0,0c-.2.09-.22.31-.05.65l.06.12h0ZM9.21,5.49h.23c.2,0,.33.06.38.18.06.14-.05.36-.35.66.27.08.42.11.47.09.1-.04.33-.33.21-.48l-.24-.33c-.06-.08-.17-.33-.33-.76-.27-.03-.61.53-.36.63h0ZM8.4,6.42s-.02-.08-.07-.17c-.05-.09-.05-.15,0-.19l.29-.25s.22-.86.12-.9c-.02,0-.88.23-1,.85-.12.66.66.71.66.66h0ZM3.24,13.68h.33c.19,0,.34-.61.4-1.87.02-.39.02-.62-.05-.62h-.14l-.24,2.02c.02.17-.34.08-.33-.08.07-1.35.11-2.02.09-2.02-.12.11-.16.24-.22.39-.02.05-.11,1.34-.11,1.65.05.34.12.53.27.53h0ZM20.9.77l-.22,1.98.23.03.11-1.2h.03s-.03,1.21-.03,1.21l.13.02.24-1.18h.03s-.15,1.2-.15,1.2l.23.03.22-1.98-.29-.03-.21.89h-.02s0-.92,0-.92l-.29-.03h0ZM28.56,13.83c.33.11.51-.14.58-.81,0-1.03.06-1.4-.02-1.55-.05-.02-.11-.04-.15,0-.11.07-.1.14-.1.3l-.02,1.3c0,.25-.36.22-.36-.03l-.02-1.39c0-.23-.25-.2-.26-.02-.02.25-.01.4-.01.7l-.04.98c0,.26.16.43.4.51h0ZM28.78,2.63c.05-.17.05-.27.03-.33-.03-.05-.1-.09-.23-.12-.13-.04-.21-.04-.27,0-.05.03-.1.12-.14.29l-.33,1.2c-.05.17-.06.28-.03.33.03.05.11.09.24.13.12.03.21.04.25,0,.05-.03.1-.13.14-.29l.13-.46-.26-.07-.15.56s-.02.04-.03.05c-.01,0-.02,0-.04,0-.02,0-.03-.02-.03-.03,0-.01,0-.03,0-.06l.38-1.4s.02-.04.03-.05c0,0,.02-.01.04,0,.02,0,.03.01.03.03,0,.01,0,.03,0,.06l-.11.39.26.07.08-.3h0ZM2.8,9.26c-.3-.07-.45.15-.53.3-.05.17-.19.36-.12.54.03.09.11.12.24.1.05-.08.08-.14.09-.19l.03-.23c.04-.09.06-.17.12-.19.21-.02.25.06.23.27v.13s-.02.1-.03.18c0,.11,0,.18.04.19.18.07.25-.03.27-.34.02-.14.02-.34-.01-.48-.05-.14-.11-.2-.33-.27h0ZM23.08,13.19h.18c.07,0,.55-.08.66-.36,0,0,.01-.68-.15-.91-.06-.01-.11,0-.16.02-.07.04-.11.07-.11.1v.54s-.01.03-.03.03c-.11-.03-.16-.07-.17-.12l-.03-.24c0-.05-.02-.13-.04-.24h-.27s-.02.89.12,1.18h0ZM17.77,14.37c.06,0,.07-.07.03-.18-.09-.27-.51-.24-.6-.19l-.13.07h-.12l.03.18h-.09c-.06,0-.1.15,0,.15h.69l.18-.03h0ZM6.38,14.67h-.09l-.18-1.09s-.19-.11-.23.11c-.12.63.45,2.97.75,2.97h.09c.07,0,.1-.03.09-.09l-.18-1.21v-1.75c0-.08-.03-.12-.09-.12h-.18c-.07,0-.1.03-.09.09l.12,1.09h0ZM4.32,13.46c.4.11.61-.26.65-1.11.03-.63.01-.93-.05-.91h-.03s-.04.02-.06.02c-.06.24-.1.42-.12.54l-.08.55c-.02.12-.08.28-.2.49-.16.03-.21-.18-.16-.63.07-.69.08-1.03.04-1.03h-.15l-.15.97v.82c0,.15.1.25.3.3h0ZM19.64,6.45c.1.29.22.43.36.42.12-.13.18-.27.18-.42v-.39s-.03-.06-.09-.04c-.18.05-.29.05-.34.03-.64-.39-.71.89-.27.5.03-.02.05-.04.06-.05l.09-.05h0ZM7.72,1.14l.34,1.96.36-.06c.11-.02.17-.05.2-.1.03-.05.03-.17,0-.34l-.21-1.17c-.03-.18-.07-.29-.11-.32-.04-.04-.12-.05-.22-.03l-.36.06h0ZM27.55,13.63c.23.05.46-.14.52-.71-.01-.89.06-1.17-.01-1.3-.05-.02-.11-.03-.14,0-.11.06-.09.12-.09.26v1.12c0,.22-.35.19-.35-.03v-1.19c0-.19-.22-.18-.23-.02-.02.22-.06.34-.06.6l-.02.69c0,.22.15.51.38.58h0ZM2.96,2.11l.61,1.9.33-.07-.28-1.98-.24.06.23,1.36h-.01s-.37-1.32-.37-1.32l-.26.06h0ZM5.98,12.74l-.03-1.01s-.01-.03-.03-.03h-.12s-.02.15-.03.44c0,.33-.06.59-.15.77h-.18c-.06-.11-.09-.19-.09-.24v-1.03s-.01-.03-.03-.03h-.15l-.09.63c-.11.75.28,1.03.36,1.03h.24c.14,0,.25-.18.3-.54h0ZM6.24,1.38l.32,1.97.36-.06c.11-.02.17-.05.2-.1.03-.05.03-.16,0-.34l-.19-1.17c-.03-.18-.07-.28-.11-.32-.05-.04-.12-.05-.23-.03l-.36.06h0ZM5.81,1.83c-.03-.17-.07-.27-.12-.3-.05-.03-.13-.04-.26-.01-.13.03-.21.06-.24.11-.03.05-.03.16,0,.33l.06.33c.01.08.03.13.06.16.03.03.06.06.11.08l.18.07s.06.03.07.04c.01.01.02.03.03.06l.1.53s0,.04,0,.06c0,.01-.02.02-.03.03-.02,0-.03,0-.04-.01,0,0-.01-.03-.02-.06l-.11-.57-.26.05.09.47c.03.17.07.27.12.31.05.03.13.04.26.02.13-.03.22-.06.25-.11.03-.05.03-.16,0-.33l-.08-.45c-.01-.07-.03-.13-.06-.16-.03-.03-.06-.06-.12-.08l-.18-.06s-.05-.02-.07-.04c-.01-.01-.02-.03-.03-.07l-.08-.41s0-.05,0-.06c0-.01.02-.02.03-.02.02,0,.03,0,.04.01.01.01.02.03.02.05l.08.4.26-.05-.06-.31h0ZM3.89,9.65c-.3-.08-.44.08-.51.22-.05.17-.12.38-.06.56.03.09.08.15.2.13.05-.07.05-.16.06-.21l.03-.22c.04-.08.06-.17.12-.18.2-.01.24.07.22.27v.13s-.02.04-.02.12c0,.11,0,.15.04.17.16.03.18-.11.22-.3.02-.13,0-.27-.03-.41-.05-.14-.05-.2-.27-.28h0ZM23.63,1.16l-.29,1.97.35.05c.11.02.18,0,.23-.03.04-.04.08-.15.1-.32l.17-1.18c.03-.17.03-.29,0-.34-.03-.05-.1-.08-.21-.1l-.36-.05h0ZM12.78,8.99l.17.39c.12.22.23.36.55.24.12-.03-.17-.41-.3-.74-.09-.16-.18-.52-.25-.52-.14-.04-.34.09-.3.2,0,.18.05.27.12.44h0ZM4.88,9.99c-.3-.08-.44.1-.52.23-.05.16-.05.32-.05.48.03.08.07.14.2.12.05-.07.05-.15.06-.19l.03-.2c.04-.08.06-.15.12-.17.2-.01.24.07.22.25v.12s-.02.04-.02.11c0,.1,0,.14.04.16.16.03.18-.1.22-.28.02-.12,0-.25-.03-.38-.05-.13-.05-.18-.27-.25h0ZM19.28,9.48s-.05-.16-.16-.34l-.08-.14c-.09-.14-.82.56-.6.54l.85-.06h0ZM7.07,1.23l.18,1.99.27-.04-.05-.46.11-.02.1.45.26-.04-.47-1.94-.39.06h0ZM3.77,1.91l.43,1.95.43-.09-.05-.2-.17.04-.17-.75.17-.04-.05-.21-.17.04-.13-.58.17-.04-.05-.21-.43.09h0ZM22.11.92l-.45,1.95.27.04.09-.45.11.02-.05.46.27.04.16-1.99-.39-.06h0ZM2.57,2.22l.6,1.9.26-.08-.6-1.9-.26.08h0ZM11.61,8.91c-.04.06-.06.14-.13.27-.11.21-.17.35-.18.41.02.12.44.09.66.09.12,0,.19-.29.17-.81.02-.06,0-.15-.07-.15h-.33s-.07.11-.11.2h0ZM9.64.88l.16,1.99.25-.02-.1-1.06h.02s.25,1.04.25,1.04l.23-.02-.16-1.99-.24.02.08.97h-.02s-.25-.96-.25-.96l-.23.02h0ZM19.22.64l-.16,1.99.24.02.07-1.06h.02s.09,1.07.09,1.07l.23.02.16-1.99-.24-.02-.07.97h-.02l-.09-.99-.23-.02h0ZM26.42,1.67l-.39,1.95.43.09.04-.21-.17-.03.15-.75.17.03.04-.21-.17-.04.12-.58.17.04.04-.21-.43-.09h0ZM26.6,13.53c.27.09.41-.11.47-.62,0-.8.05-1.08-.01-1.2-.04-.01-.09-.03-.12,0-.09.05-.08.11-.08.23l-.02,1c0,.19-.3.17-.3-.02l-.02-1.07c0-.17-.21-.16-.21-.01-.02.19-.01.31-.01.54l-.03.76c0,.2.13.33.33.4h0ZM27.54,11.27c.27-.09.37-.4.41-.63.01-.24.04-.56-.05-.75-.04-.09-.09-.14-.2-.03-.03.13-.02.24-.01.3v.3c0,.13,0,.25-.05.31-.18.15-.22.07-.24-.2l-.02-.16s0-.06,0-.16c-.01-.14-.03-.19-.07-.19-.15.07-.14.26-.13.53.01.18.04.34.1.5.07.14.08.22.29.17h0ZM10.41.79l.08,2,.27-.03-.04-.46h.11s.07.44.07.44l.27-.03-.38-1.96-.39.04h0ZM13.05.59l.13,1.99.24-.02-.08-1.06h.02s.24,1.05.24,1.05l.23-.02-.13-1.99-.24.02.07.97h-.02s-.23-.96-.23-.96h-.23ZM27.85,2.02l-.52,1.92.26.07.52-1.92-.26-.07h0ZM11.76,1.03c-.02-.17-.05-.28-.09-.31-.04-.04-.13-.05-.26-.04-.13.01-.21.04-.25.09-.04.05-.04.15-.03.32l.13,1.24c.02.18.05.28.09.32.05.04.14.05.27.03.13-.01.21-.04.24-.08.04-.04.05-.15.03-.33l-.05-.47-.27.03.06.57s0,.05,0,.06c0,.01-.02.02-.03.02-.02,0-.03,0-.04-.01-.01-.01-.02-.03-.02-.06l-.15-1.44s0-.04,0-.05c0-.01.02-.02.04-.02.02,0,.03,0,.04.01,0,.01.01.03.02.05l.04.41.27-.03-.03-.31h0ZM25.77,13.32c.27.09.38-.03.44-.46,0-.68.05-.92-.01-1.02-.04-.02-.09-.03-.12,0-.09.04-.08.09-.08.19l-.02.85c0,.16-.3.12-.3-.04l-.02-.91c0-.15-.21-.15-.21-.03-.02.16-.01.26-.01.46l.04.61c0,.17.09.28.29.35h0ZM20.67,1.11c.01-.17,0-.28-.03-.32-.04-.04-.12-.07-.25-.08-.13-.01-.22,0-.27.04-.04.04-.07.14-.08.31l-.11,1.25c-.02.17,0,.28.03.33.04.04.12.07.26.08.12.01.21,0,.25-.04.04-.04.07-.14.09-.31l.11-1.25h0ZM26.76,11.33c.26-.07.26-.27.3-.46.01-.2-.02-.39-.04-.57-.04-.07-.09-.12-.19-.03-.03.1-.02.2-.02.25v.25c0,.11-.01.21-.06.26-.17.12-.22.05-.23-.17l-.02-.13s0-.05,0-.13c-.01-.12-.03-.16-.06-.16-.14.05-.14.21-.13.43,0,.15,0,.21.06.34.06.12.2.16.4.13h0ZM19.52,6.84c-.19-.15-.91.77-.66.88.31.14.92-.68.66-.88h0ZM12.9.94c-.01-.17-.04-.27-.09-.31-.04-.04-.13-.05-.26-.04-.13.01-.22.04-.26.08-.04.05-.05.15-.03.32l.1,1.25c.01.17.04.28.08.32.05.04.14.05.27.04.13-.01.21-.04.24-.08.04-.05.05-.15.04-.33l-.1-1.25h0ZM25.12,11.67c.22-.06.25-.27.29-.4.02-.14.02-.27-.05-.37-.03-.05-.08-.05-.17,0-.03.07-.03.12-.03.16v.2c-.02.08-.02.13-.06.16-.1.07-.2.04-.21-.11v-.09s-.01-.08-.02-.14c0-.05-.09-.09-.14-.05-.06.04-.08.1-.06.26,0,.1.08.19.12.28.05.08.21.12.32.1h0ZM6.56,10.61c-.24-.06-.4.09-.46.2-.04.13-.06.24,0,.37.03.07.06.07.16.06.04-.06.03-.1.04-.14l.03-.2c.03-.06.07-.1.11-.11.17,0,.2.06.18.21v.1s.01.03,0,.09c0,.05.02.12.09.11.07,0,.07-.07.1-.22.01-.1,0-.17-.03-.28-.04-.11-.1-.16-.22-.2h0ZM20.61,8.97c-.09.05.34.23.36.23h.39v-.09h-.27l-.09-.06c-.16-.11-.29-.13-.39-.07h0ZM25.96,11.54c.25-.05.27-.24.25-.4.01-.17.06-.38-.02-.51-.04-.06-.11-.08-.21-.02-.03.09-.03.16-.03.2v.19c0,.09.01.18-.03.22-.18.17-.2-.02-.21-.15,0-.02.01-.06,0-.13-.01-.1-.05-.14-.08-.14-.13.04-.12.21-.12.4,0,.13.02.12.07.23.06.1.19.13.38.11h0ZM10.46,8.7c-.1,0-.18.12-.34.24-.1.07-.18.16-.29.22-.08.05-.07.15,0,.19.06.06.24-.02.31-.12l.09-.12c.07-.1.41-.34.22-.41h0ZM24.51,14.25c.29.62-.18,1.75-.16,2.32.01.02.03.03.06.03.46-.3.67-1.12.63-2.48h-.09c-.02.19-.06.33-.14.41-.05-.11-.11-.19-.18-.28h-.13ZM16.98.51l-.08,1.63c0,.17,0,.28.04.32.04.04.12.07.26.07.13,0,.21-.01.25-.05.04-.04.07-.15.07-.32l.08-1.63h-.27s-.08,1.71-.08,1.71c0,.03,0,.05-.02.06,0,0-.02.02-.04.02-.02,0-.03,0-.04-.02,0-.01-.01-.03,0-.06l.08-1.73h-.27ZM19.01.98c0-.17,0-.28-.05-.32-.04-.04-.12-.07-.25-.07-.13-.01-.22,0-.26.05-.04.04-.07.15-.07.31l-.06,1.25c0,.17,0,.28.04.33.04.04.12.06.26.07.13,0,.21,0,.25-.05.04-.04.07-.15.08-.32l.06-1.25h0ZM20.41,11.35c.19,0,.29-.04.3-.05.03-.02.05-.05.05-.08,0-.03-.01-.05-.03-.07-.02-.02-.05-.02-.07-.04,0,0-.04,0-.04-.37,0-.07,0-.16,0-.31,0-.11.02-.11.06-.13,0,0,.03-.01.05-.03.01-.02.02-.03.02-.06,0-.03-.02-.07-.06-.09-.01,0-.12-.04-.31-.04-.18,0-.27.04-.29.05-.04.02-.05.05-.05.08,0,.07.08.1.08.1.02.01.03.03.04.07,0,.01.02.12.02.29,0,.32-.01.41-.04.43-.02.03-.05.03-.07.04-.02.02-.03.04-.03.07,0,.03.02.07.09.1.03,0,.14.03.27.03h0ZM8.07,13.37h-.42c-.14,0-.21.04-.21.12l.03.94s.02.06.06.06h.12s.06-.02.06-.06v-.63s.01-.03.03-.03h.06c.06.1.1.26.11.45.01.18.02.27.04.27h.15s.03-.01.03-.03v-.91l-.06-.18h0ZM10.73,29.32c-.17-.2-.39-.08-.31.12.03.07.38.66.61.58.13-.05.12-.15-.04-.32-.1-.1-.16-.19-.19-.25l-.07-.13h0ZM14.02.55l-.09,2h.27s0-.47,0-.47h.11s.03.45.03.45h.27s-.21-2-.21-2h-.4ZM16.28.52l-.17,1.99h.27s.02-.46.02-.46h.12s.01.46.01.46h.27s-.12-1.99-.12-1.99h-.4ZM30.18,25.03s-.14.52.24.57c.22.03.59-.18.33-.38-.17-.13-.3-.19-.39-.19h-.18ZM25.02,13.3c.21,0,.26-.11.31-.49,0-.58.04-.79-.01-.87-.03,0-.08-.02-.11,0-.08.04-.07.09-.07.18l-.02.73c0,.14-.25.14-.25,0l-.02-.78c0-.13-.18-.1-.18,0-.02.14,0,.22,0,.39l.07.43c.05.21.15.32.29.39h0ZM5.73,10.38c-.23-.07-.34.05-.4.15-.04.12-.09.28-.04.42.02.06.06.11.16.1.04-.05.04-.12.05-.15l.02-.16c.03-.06.04-.12.09-.13.16,0,.19.06.17.21v.09s-.01.03-.02.09c0,.08,0,.12.03.13.12.03.14-.07.17-.22.01-.1,0-.2-.02-.31-.04-.11-.04-.15-.21-.22h0ZM23.36,10.83c-.2-.23-.33-.3-.4-.23l-.02.02v.79l.02.02c.08.08.15.06.22-.05l.06-.09h.09l.12.09s.28.06.08-.29c-.06-.11-.12-.19-.17-.26h0ZM21.19,5c-.05-.06-.54.5-.63.68l.09.02s.12-.12.33-.36c.17-.19.24-.3.21-.34h0ZM10.03,30.1c.15.05.31-.06.27-.21-.02-.06-.12-.18-.32-.38-.13-.13-.24-.14-.31-.04-.06.08.19.58.36.63h0ZM6.21,12.74l-.02-.97h-.12s-.01.03-.03.03l-.02.97c.11.48.63.39.63,0v-.82s-.01-.06-.03-.06l-.09.02s0,.64-.02.79c-.08.3-.3.15-.29.05h0ZM12.21,8.8l.03.24.03.45c0,.06,0,.14.09.21.24.02.36-.05.43-.18.05-.09.04-.16,0-.3-.04-.04-.16-.46-.18-.46-.06-.28-.41-.16-.39.04h0ZM12.69,6.67h.15c.07,0,.31-.2.3-.33-.04-.55-.42-.62-.57-.12-.06.19.07.45.12.45h0ZM2.3,33.03v-.06l.05-.06s.07-.49-.24-.45c-.36.04-.48.28-.24.4l.14.07.11.1h.18ZM28.29,25.85c-.27.02-.49.3-.26.41.45.22.62.17.5-.16-.07-.18-.15-.27-.24-.26h0ZM23.03,14.91l.5-.12s.21-.44-.11-.42c-.28.01-.42.08-.42.21v.3s.01.04.03.03h0ZM5.87,1.45l.3,1.97.27-.04-.3-1.97-.27.04h0ZM13.52,8.82c.03.06.12.18.15.27.07.17.11.27.11.28l.09.02s.01-.1-.04-.21c0-.02-.03-.06-.04-.1-.04-.13-.08-.2-.16-.29-.08-.24-.19-.53-.3-.52-.1.09.11.42.19.57h0ZM3.24,31.79h-.06c-.06,0-.07-.08-.03-.24.13-.52-.32-.47-.33-.36v.14s-.03.14-.03.14l-.06.12s-.01.09.01.18c.07.26.17.4.29.4h.21s.06-.04.06-.12v-.09l-.06-.15h0ZM2.36,26.19c.01.13.13.2.15.2l.42-.09h-.03l-.15-.09v-.12l.04-.07.04-.06s.02-.05.03-.07c-.09-.05-.13-.15-.11-.29-.2.02-.3.07-.3.15v.06h.21s.04.03.03.09l-.06.3h-.02s-.01.03-.01.03c-.04,0-.08,0-.1,0l-.05-.02-.09-.02h0ZM5.79,28.14s-.06.22.02.27c.28.01.84-.62.33-.51-.13.03-.31.17-.35.24h0ZM18.31,30.8c.06-.07,0-.22-.16-.43-.09-.11-.14-.2-.17-.27-.03,0-.08,0-.15-.03-.11.07-.03.29.25.64.1.13.18.16.24.08h0ZM10.99,4.74c-.15,0-.28.12-.28.28s.12.28.28.28.28-.12.28-.28-.12-.28-.28-.28h0ZM6.62,28.51l.08-.11.1-.1s.06-.08.06-.12v-.06l-.09-.09c-.06-.06-.59.3-.45.48.05.07.16.07.3,0h0ZM8.01,12.64l-.09-.03h-.36l-.03.03s-.02.02-.03.03l-.03.03v.18s.02.03.06.03h.39s.08-.03.12-.09c.01-.02,0-.17-.03-.18h0ZM.76,25.87c-.06,0-.13.03-.2.08-.11.08-.1.18.02.28.28.24.43.22.45-.05.02-.21,0-.32-.06-.32h-.21ZM7.58,12.43h.39c.06,0,.09-.02.09-.06v-.15s-.02-.06-.06-.06h-.36c-.1,0-.15.03-.15.09v.12s.03.06.09.06h0ZM17.75.56v.21s.12,0,.12,0l-.09,1.78h.27s.09-1.77.09-1.77h.14s.01-.2.01-.2l-.54-.03h0ZM29.33,2.72s.01-.04,0-.06c0-.01-.01-.02-.03-.02-.02,0-.03,0-.04,0-.01,0-.02.03-.03.05l-.45,1.38s-.01.04,0,.06c0,.01.01.02.03.03.01,0,.03,0,.04,0,.01,0,.02-.03.03-.05l.44-1.38h0ZM8.37,21.53v-.33c0-.45-.27-.76-.51-.66-.02,0-.03.02-.03.03v.51s.12.41.54.45h0ZM12.32,8.45c.08.05.2.05.27-.01.27-.19.32-.62.11-.62h-.07c-.13,0-.25.06-.3.15-.04.02-.1.48-.01.48h0ZM7.1,28.72h.06c.09,0,.33-.77-.06-.6-.02,0-.05.05-.09.12l-.06.15-.08.13c-.27.44.27.44.23.2h0ZM15.69,30.87v-.18s-.28-.45-.36-.45h-.12c-.05,0-.06.06-.03.19.01.05.51.67.51.45h0ZM19.98,8.66c0-.1-.46-.03-.51.12-.05.13.22.47.45.45.07-.07.1-.18.07-.32,0-.04-.01-.09-.01-.16v-.09h0ZM20.42,4.72c0-.05-.18.02-.27.03-.15.02-.08-.31-.18-.27-.08,0-.06.16-.06.24,0,.1.13.19.18.18l.15.02c.1,0,.23-.12.18-.2h0ZM.91,6.42c-.2.02-.39.34-.3.69l.12.48c.05,0,.1-.02.14-.05.06-.04.19-.22.19-.25v-.39l-.15-.48h0ZM15.13,34.39c.02-.07,0-.13-.05-.2-.17-.24-.44-.15-.44-.11v.12s.26.18.36.18h.12ZM17.22,32.28v-.06s.02-.04.06-.03c.03-.05.02-.1-.04-.16l-.02-.02h-.21s-.1.04-.21.12l.02.12.04.03s.03.04.03.09h.18l.05-.03.04-.04s.03-.02.05-.03h0ZM8.16,15.15s-.09-.01-.19.03c-.03.02-.11.05-.24.09-.04.42.05.74.26.94.12-.1.18-.34.2-.73,0-.19,0-.3-.03-.33h0ZM19.51,7.69c-.2.03-.34.12-.42.29.07.05.08.16.04.32-.01.06-.02.1,0,.12.03.1.07.15.12.15h.18c.06,0,.2-.38.12-.69l-.03-.13v-.06h0ZM8.07,10.95h-.06s-.05.1-.07.15l-.07.15-.13.1c-.08.06-.11.1-.11.11v.09s.01.03.03.03h.14s.07.02.12.07l.07.12h.09s.03,0,.03-.03v-.73s-.01-.06-.03-.06h0ZM8.79,28.26c-.1.08-.05.28.14.59.11.17.39.13.25-.19-.11-.25-.21-.4-.29-.42l-.04.02h-.07ZM13.05,7.36c.09,0,.17-.08.2-.13.04-.07.02-.21-.04-.42-.09-.29-.43-.02-.41.06.03.17.03.29.08.42.05.08.13.06.18.06h0ZM12.27,7.4v.29c0,.21.45.03.45-.09v-.36c0-.27-.45-.12-.45.16h0ZM11,30.95c.18,0-.15-.76-.33-.63-.19.13.09.63.18.63h.15ZM17.91,31.28c.08-.14-.29-.71-.42-.55-.18.24.36.65.42.55h0ZM13.36,7.87c.09-.39-.15-.47-.22-.45-.16.03-.16,0-.24.12-.03.09-.02.24.02.35.1.15.32.11.44-.02h0ZM13.51,29.56v.12s.29.37.39.3c.14-.1.08-.23-.17-.4-.06-.04-.11-.06-.16-.05-.04,0-.06.02-.06.03h0ZM28.4,32.64c.17,0,.33-.12.33-.3,0-.08-.39-.18-.42-.03-.01.07-.03.14-.06.21-.03.09.08.11.15.11h0ZM9.7,32.77s0-.06.03-.08c-.05-.15-.1-.23-.15-.23h-.21c-.08,0-.12.02-.12.06v.12l.21.12h.24ZM14.71.54v1.99h.44v-.21h-.17V.54h-.27ZM23.02,13.4c-.06.04-.09.1-.09.18v.12l.06.57c.01.13.36.08.36-.12v-.66l-.02-.05c-.03-.05-.05-.08-.07-.08h-.18l-.02.02h-.04ZM30.3,6.63l-.06.66s.05.15.09.15h.06s.31-.48.27-.63c-.02-.08-.19-.23-.36-.18h0ZM9.16,30.14c.56.28.11-.79-.09-.66-.08.05-.1.17-.04.35l.04.15.09.11v.06h0ZM12.6,6.88l-.02-.2c-.08-.23-.11-.29-.25-.25-.14.04-.16.11-.16.23l.03.24c0,.28.39.11.4-.02h0ZM8.01,5.94c.06,0,.17-.07.31-.22.12-.13.16-.25.11-.36-.07-.18-.42.29-.42.33v.24h0ZM5.53,29.11c-.16.18-.19.29-.09.33.15.06.43-.36.39-.42-.06-.1-.16-.07-.3.09h0ZM21.79,31.83c-.13-.13-.42,0-.42.12,0,.07-.03.15.02.2.17.17.55-.18.4-.32h0ZM12.16,7.51c-.06-.13-.32-.05-.35.05-.05.2-.03.51.16.47.14-.02.21-.11.23-.27.02-.14,0-.16-.04-.25h0ZM26.11,31.98s.27-.14.27-.18c0-.05.06-.15-.03-.15-.12-.12-.39-.07-.39.09,0,.14.05.24.15.24h0ZM4.87,32.55c.19.07.36-.27.09-.33-.33-.08-.41.22-.09.33h0ZM16.17,14.39v-.12l-.21-.09c-.11-.05-.31.15-.18.18l.21.06h.06l.12-.03h0ZM1.03,13.22l.3-2.72s-.05-.05-.15-.03c-.22.57-.29,2.75-.21,2.75h.06ZM11.87.67l.12,1.99.27-.02-.12-1.99-.27.02h0ZM23.84,1.43l-.09.61.1.02-.04.27-.1-.02-.1.68.13.02s.02,0,.03-.01c.01,0,.03-.03.04-.08v-.02s.2-1.34.2-1.34c0-.05-.02-.08-.03-.09,0-.01.01-.02-.01-.02l-.13-.02h0ZM22.99,16.15h.09l.3-.94-.21-.02-.02-.03s-.16-.03-.16.02v.97h0ZM23.81,13.28c-.16-.16-.38.06-.36.21l.06.63s.11.08.22-.04c.08-.09.17-.71.08-.81h0ZM8.58,28.99v-.18l-.07-.2-.05-.2c-.02-.1-.07-.15-.13-.15h-.03l-.12.06v.27l.06.16c.08.2.13.3.15.3h.06l.12-.06h0ZM11.75,6.97l.05.33c.02.15.37.06.36-.11l-.02-.25c0-.28-.4-.25-.39.03h0ZM16.14,30.71c.13,0-.06-.6-.21-.6h-.12c-.12,0,.1.6.24.6h.09ZM3.84,27.91c.17.17.34-.11.36-.3.01-.09-.02-.16-.09-.21,0,0-.02,0-.03.01-.07.02-.11.03-.12.05l-.15.3c-.03.05-.02.1.03.15h0ZM11.05,8.94c-.13.13-.22.32-.23.35-.02.1.02.14.12.11.12-.03.26-.29.28-.45,0-.07-.12-.07-.17-.02h0ZM6.31,32.16v-.24l-.18-.09h-.05s-.1.01-.1.01l-.02.03s-.03.02-.07.01c-.05.17.42.38.42.27h0ZM4.89,29.02h.15s.21-.12.21-.15v-.09l-.02-.02c-.17-.17-.36.09-.37.14-.02.08-.01.12.03.12h0ZM25.23,31.71h.09c.13,0,.3-.33.18-.33-.13,0-.33-.04-.36.12-.02.09.07.21.09.21h0ZM10.57,32.7h.12l.12-.06h.03v-.24s-.01-.03-.03-.03h-.18c-.2,0-.31.33-.06.33h0ZM9.49,33.28s-.03.03-.03.06v.06l.21.12c.25.15.23-.27.09-.27h-.21l-.02.02h-.04ZM18.43,14.43v-.09c0-.07-.29-.24-.42-.06l.09.18h.27s.06-.01.06-.03h0ZM12.44,11.1c.07.02.16-.02.19-.15.02-.08.03-.26,0-.4-.03-.15-.09-.19-.15-.2-.07-.02-.16.02-.19.14-.05.17,0,.44.04.53.03.05.07.08.1.09h0ZM4.89,27.85c.05.11.13.15.24.12,0-.02.01-.03.03-.03l-.12-.53c-.02-.1-.25,0-.24.08l.02.21.05.04s.02.03.03.05v.06h0ZM16.68,30.54h.12c.1,0-.02-.57-.18-.57h-.12c-.11,0,.02.57.18.57h0ZM27.98,31.55c-.02-.3-.32-.05-.36.09-.05.04.04.24.18.21.12-.03.19-.13.18-.3h0ZM23.24,32.72c-.02-.3-.32-.05-.36.09-.05.04.04.24.18.21.12-.03.19-.13.18-.3h0ZM22.91,31.71c-.02-.3-.32-.05-.36.09-.05.04.04.24.18.21.12-.03.19-.13.18-.3h0ZM8.43,33.25h.21s.03,0,.03-.03v-.15l-.06-.12v-.03h-.15s-.18.13-.18.18v.06l.15.09h0ZM8.02,1.31l.27,1.55h.02s.05-.02.06-.03c0-.01,0-.04,0-.09h0s-.23-1.35-.23-1.35c0-.05-.02-.08-.03-.09-.01,0-.03,0-.06,0h-.02ZM7.71,28.92h.18c.15,0,.03-.69-.09-.69h-.15c-.05,0-.06.13-.03.38l.02.15.07.11v.06h0ZM12.33,28.38c-.1-.11-.24,0-.21.15.06.3.36.49.36.34v-.21c0-.07-.05-.16-.15-.27h0ZM11.93,8.63s.09,0,.12-.02c.11,0,.18-.4.07-.47-.03-.02-.07-.02-.11-.02-.07,0-.18.06-.18.14v.12c0,.14.03.25.1.25h0ZM14.62,30.71v.15l.06.09c.12.18.22.21.3.09.05-.08-.15-.38-.3-.36-.04,0-.06.02-.06.03h0ZM19.73,30.05c.16,0,.19-.19.09-.3-.09-.13-.3-.02-.3.06,0,.12.08.24.21.24h0ZM7.87,23.34c-.1,0-.18.08-.18.18s.08.18.18.18.18-.08.18-.18-.08-.18-.18-.18h0ZM22.78,21.69c-.1,0-.18.08-.18.18s.08.18.18.18.18-.08.18-.18-.08-.18-.18-.18h0ZM23.35,21.61c-.1,0-.18.08-.18.18s.08.18.18.18.18-.08.18-.18-.08-.18-.18-.18h0ZM17.49,33.1h.18l.09-.09v-.18s-.02-.06-.06-.06h-.24s-.06.02-.06.06v.15s.07.12.09.12h0ZM27.14,30.96c-.08,0-.15.13-.17.18-.05.13.18.25.3.06.09-.14.11-.24-.14-.24h0ZM21.21,29.71s.2.21.33,0c.07-.11.03-.17-.11-.18-.11,0-.22.06-.22.18h0ZM9.26,17.98c0-.07-.06-.16-.19-.16-.12,0-.18.09-.18.16,0,.03.01.05.05.05,0,0,.07,0,.12,0,0,0,.1,0,.12,0t.05,0s.03-.02.03-.05h0ZM2.38,10.84l-.11,1.93-.02.21v.06s.03.05.06.05h.06s.07-.52.17-1.54c.04-.42.03-.64-.02-.66l-.15-.05h0ZM6.54,1.55l.25,1.55h.02s.05-.02.06-.03c0-.01,0-.04,0-.08h0s-.22-1.35-.22-1.35c0-.05-.02-.07-.03-.09-.01,0-.03-.01-.06,0h-.02ZM19.82,7.07s-.22.68.08.92c.11-.07.17-.17.17-.3v-.48s-.11-.2-.24-.14h0ZM7.8,30.17s.03-.03.03-.06v-.45c0-.25-.19-.39-.33-.21,0,.01,0,.14.01.39.01.17.05.3.11.36h.12l.02-.02h.04ZM6.98,31.25h.12c.14,0,.32-.78.03-.73-.12.02-.18.13-.18.3v.36s.01.06.03.06h0ZM8.61,30.16s.03-.05.03-.09v-.09l-.12-.44c-.05-.17-.21,0-.21.02v.39c0,.18.15.32.3.21h0ZM6.13,29.74h.09c.12,0,.32-.54.06-.48-.09.02-.21.19-.21.21v.21s.02.06.06.06h0ZM24.67,29.08c-.09-.03-.19.03-.23.14-.04.11,0,.22.09.25.09.03.19-.03.23-.14.04-.11,0-.22-.09-.25h0ZM20.22,3.97c-.12,0-.15.07-.06.21,0,.03.04.07.13.14.06.04.12.06.18.04,0-.02-.05-.11-.15-.27-.05-.08-.08-.12-.09-.12h0ZM17.32,31.38v-.18c0-.09-.33-.27-.33-.15v.12l.21.21h.12ZM4.08,31.52h.15s.16-.33.06-.33h-.21l-.09.09v.15l.09.09h0ZM7.01,23.24c-.09,0-.17.08-.17.17s.08.17.17.17.17-.08.17-.17-.08-.17-.17-.17h0ZM22.16,21.73c-.09,0-.17.08-.17.17s.08.17.17.17.17-.08.17-.17-.08-.17-.17-.17h0ZM8.69,23.54c-.1,0-.18.08-.18.18s.08.18.18.18.18-.08.18-.18-.08-.18-.18-.18h0ZM19.16,23.49c-.06.07-.06.16.01.23.09.09.18.06.24,0,.06-.06.05-.07.02-.1l-.17-.14s-.07-.02-.1.01h0ZM25.17,27.62c-.09,0-.17.08-.17.17s.08.17.17.17.17-.08.17-.17-.08-.17-.17-.17h0ZM23.85,29.65c-.09,0-.17.08-.17.17s.08.17.17.17.17-.08.17-.17-.08-.17-.17-.17h0ZM13.2,30.01c.24.08.19-.26-.06-.3-.22-.04-.14.24.06.3h0ZM25.54,28.88c-.09,0-.16.06-.16.14s.08.14.16.14.17-.06.17-.14-.08-.14-.17-.14h0ZM4.38,28c.06.08.24.01.24-.09v-.39c0-.08-.02-.12-.06-.12h-.15l-.09.09v.39s.02.07.06.12h0ZM12.96,8.87c-.15,0,.11.59.24.54.1-.03-.12-.54-.18-.54h-.06ZM19.28,31.07c.02.16.19.17.27,0,.06-.08.06-.17,0-.24-.05-.08-.3.02-.27.24h0ZM20.59,29.9c.04-.11.02-.35-.17-.3-.18.04-.17.2-.03.3.03.09.16.06.2,0h0ZM26.14,28.38c-.08,0-.15.08-.15.17s.07.17.15.17.15-.08.15-.17-.07-.17-.15-.17h0ZM8.28,32.01s.04.02.05.03c.17.11.25.1.25-.03v-.18s-.01-.03-.03-.03l-.15.02-.03.04s-.04.03-.09.03v.12h0ZM9.51,23.61c-.09,0-.16.07-.16.16s.07.16.16.16.16-.07.16-.16-.07-.16-.16-.16h0ZM3.81,32.37h.24s.03-.01.03-.03v-.21c0-.13-.3-.04-.3.06v.15s.01.03.03.03h0ZM19.62,23.8s-.03-.02-.06,0c-.04.07-.06.16.03.24.07.07.17.06.22,0,.03-.03.02-.04,0-.06l-.17-.17s-.01,0-.01,0h0ZM24.1,28.53c-.08,0-.16.07-.16.16s.07.16.16.16.16-.07.16-.16-.07-.16-.16-.16h0ZM21.73,32.88c.2.03.26-.27.09-.27-.1,0-.21.04-.21.15,0,.07.04.11.12.12h0ZM27.01,32.2c.2.03.26-.27.09-.27-.1,0-.21.04-.21.15,0,.07.04.11.12.12h0ZM22.12,33.53c.2.03.26-.27.09-.27-.1,0-.21.04-.21.15,0,.07.04.11.12.12h0ZM25.81,27.75c-.08,0-.15.06-.15.13s.07.13.15.13.15-.06.15-.13-.07-.13-.15-.13h0ZM9.21,15.82c0-.11-.05-.18-.17-.18-.1,0-.15.07-.15.16,0,.06.02.07.17.07.13,0,.14,0,.14-.01.01,0,.02-.02.02-.04h0ZM21.68,12.04c0,.09.05.16.17.16.1,0,.15-.06.15-.14,0-.05-.02-.06-.17-.06-.13,0-.13,0-.13,0-.01,0-.02.01-.02.03h0ZM16.98,26.12s-.01-.01-.04,0l-.19.12s-.05.04-.04.05c0,.03.22.1.27.09.03-.03.02-.08.02-.09,0-.13-.01-.16-.02-.16h0ZM4.41,12.74h.06c.21-.58.15-1.33.12-1.33h-.06c-.1.19-.16.55-.18,1.09,0,.16.01.24.06.24h0ZM29.82,9.21c0,.14.03.31.03.45,0,.2,0,.32.08.39.11-.02.18-.11.15-.29-.03-.19.03-.46,0-.66,0-.22-.27-.15-.26.11h0ZM1.51,9.76c.02-.07.01-.18.03-.26.03-.11.04-.17-.02-.25-.09-.04-.16-.02-.16.09,0,.12-.07.24-.07.36-.02.12.2.21.23.06h0ZM6.98,29.96l.09-.54s0-.03-.03-.03h-.12l-.12.24v.3s.02.04.06.06c.02.01.04,0,.08-.02.01,0,.03-.01.04-.01h0ZM11.76,28.41s-.18-.05-.18,0v.27l.04.1c.05.12.09.18.11.18h.09s.01-.03.03-.03l-.09-.51h0ZM13.39,25.94s.01-.02-.02-.04l-.17-.15s-.05-.03-.05-.03c-.02.02-.03.25,0,.29.03.02.07,0,.09-.01.13-.04.15-.06.15-.06h0ZM14.73,27.02c-.08-.04-.16-.03-.22.08-.05.09-.01.17.06.2.04.03.06.02.13-.12.06-.11.06-.12.06-.12,0-.02,0-.03-.03-.04h0ZM18.89,16.15c-.05-.1-.24-.04-.21.12.03.23.27.16.27.09v-.09l-.06-.12h0ZM20.78,29.05c0,.07.22.12.27-.06.05-.15-.02-.21-.2-.16-.1.02-.07.14-.07.22h0ZM25.32,28.21c-.08,0-.14.06-.14.14s.06.14.14.14.14-.06.14-.14-.06-.14-.14-.14h0ZM2.06,27.17v-.15l-.12-.06s-.08,0-.13.04l-.02.02v.15s.03.06.09.06h.06l.12-.06h0ZM20.58,22.07s0,0-.02.03l-.11.17c-.04.05-.03.06-.03.07.02,0,.26,0,.27-.04.03-.03,0-.08-.02-.09-.05-.12-.07-.14-.09-.15h0ZM3.39,12.91h.06s.01-.04.02-.06c0-.02.01-.04.02-.06l.02-.06.09-1.3c0-.12,0-.18-.03-.18h-.06l-.15.85v.76s.01.06.03.06h0ZM20.41.99s0-.04,0-.06c0,0-.02-.02-.03-.02-.02,0-.03,0-.04.01-.01.01-.02.03-.02.05l-.13,1.44s0,.05,0,.06c0,.01.02.02.04.02.01,0,.03,0,.03-.01.01-.01.01-.03.02-.05l.13-1.44h0ZM11.79,8.96c-.06.15-.13.34-.13.51,0,.04.19.06.21-.07.02-.15.04-.32.04-.47,0-.06-.1,0-.12.03h0ZM5.11,30.62h-.12c-.12,0-.19.33-.03.33h.12s.03,0,.03-.03v-.3h0ZM28.99,26.7c-.07,0-.13.06-.13.13s.06.13.13.13.13-.06.13-.13-.06-.13-.13-.13h0ZM12.62.86s0-.04-.02-.05c0-.01-.02-.01-.04-.01-.02,0-.03,0-.04.02,0,.01-.01.03,0,.06l.12,1.44s0,.05.02.06c0,0,.02.02.04.01.01,0,.03-.01.03-.02,0-.01,0-.03,0-.06l-.12-1.45h0ZM7.32,1.5l.12,1.02.1-.02-.21-1.01h0ZM4.61,1.91l.16.67s0,0,.01,0c0,0,0,0,.01,0,.02,0,.04-.02.05-.03,0-.02.01-.04,0-.06l-.12-.5s-.02-.07-.03-.08c-.01,0-.03,0-.06,0h-.02ZM22.05,25.59c0-.19-.01-.31-.02-.46,0-.14-.22-.21-.21-.08-.02.12-.02.33.06.54h.17ZM8.31,25.14h.17c.08-.22.08-.44.06-.55,0-.13-.21-.05-.21.09,0,.15-.02.27-.02.46h0ZM17.25,30.2v-.12l-.12-.24h-.09s-.03.01-.03.03v.15s.02.08.07.13l.05.05h.12ZM29.5,26.25c-.06,0-.12.05-.12.12s.05.12.12.12.12-.05.12-.12-.05-.12-.12-.12h0ZM1.57,28.53h.12s.06-.03.06-.09v-.03l-.18-.09s-.01.01-.02.02c0,0-.01.01-.02.02l-.02.02v.09s.02.06.06.06h0ZM30.03,13.1v-1.3c0-.19-.18-.23-.19-.12,0,.28.02.54,0,.85v.63c0,.13.19.14.19-.06h0ZM22.25,1.24l-.2,1.01.09.02.11-1.02h0ZM28.52,9.67c0,.1.03.23.03.34,0,.16,0,.25.07.27.08-.05.13-.16.11-.29-.02-.14.01-.37-.01-.51,0-.16-.2-.01-.19.19h0ZM6.9,24.35l-.06.3c-.03.15,0,.26.06.33.1.02.15-.04.15-.18v-.42c0-.09-.13-.13-.15-.03h0ZM23.46,24.73c-.02-.1-.15-.05-.15.04v.42c0,.14.05.19.15.17.07-.08.09-.19.06-.34l-.06-.3h0ZM20.3,25.74c0,.11.2.03.2-.08l-.04-.28c-.03-.12-.19-.14-.19.02l.02.34h0ZM2.73,10.12c.01-.06,0-.15.02-.22.02-.1.03-.15-.02-.21-.07-.02-.12.02-.12.11,0,.1-.06.21-.06.31-.01.11.15.13.17,0h0ZM10.07,25.19l.02-.35c0-.17-.17-.13-.19-.01l-.04.28c0,.11.2.18.2.07h0ZM21.5,17.72s-.02,0-.02.04v.24c0,.07.01.07.02.07.02,0,.21-.15.21-.2,0-.04-.05-.06-.07-.07-.11-.07-.14-.08-.14-.08h0ZM21.5,13.93s-.02,0-.02.04v.22c0,.06,0,.06.02.06.02,0,.21-.14.21-.19,0-.03-.05-.06-.07-.07-.11-.06-.14-.07-.14-.07h0ZM3.82,10.48c.01-.06,0-.15.02-.21.02-.09.03-.15-.02-.2-.07-.02-.12.01-.12.1,0,.1-.05.21-.05.3-.01.1.15.14.17.01h0ZM23.16,23.44c0,.14.01.22.01.33,0,.1.18.16.18.07.02-.08.02-.24-.05-.39h-.14ZM4.81,10.75c.01-.06,0-.14.02-.2.02-.09.03-.14-.02-.19-.07-.02-.12.01-.12.09,0,.09-.05.19-.05.28-.01.1.15.12.17.01h0ZM10.93,10.68c.07,0,.16-.06.16-.19,0-.12-.09-.18-.16-.18-.03,0-.05.01-.06.05,0,0,0,.07,0,.12,0,0,0,.09,0,.12,0,.04,0,.04,0,.05,0,.03.02.03.05.03h0ZM14.13,10.63c.09,0,.16-.05.16-.17,0-.1-.06-.15-.14-.15-.05,0-.06.02-.06.17,0,.13,0,.13,0,.13,0,.01.02.02.04.02h0ZM20.76,28.32c0-.2-.21-.05-.21.06,0,.08.09.14.16.1.03-.02.05-.07.05-.16h0ZM20.55,30.44l.11-.05c.06,0,.08-.19,0-.19l-.11.06c-.07,0-.08.18,0,.18h0ZM2.48,29.17h.18v-.18c0-.06-.21-.09-.21-.03v.15s.01.06.03.06h0ZM2.42,28.17s-.18,0-.18.03v.09c0,.06.16.1.21,0,.02-.05.01-.09-.03-.12h0ZM5.47,12.65h.06c.06-.07.09-.19.09-.36v-.54s-.01-.06-.03-.06h-.09s-.01.03-.03.03l-.03.51c-.01.23,0,.37.03.42h0ZM21.99,23.99c.02.07.13.04.13-.02v-.31c0-.1-.04-.14-.13-.13-.06.05-.08.13-.05.24l.05.22h0ZM12.42,8.96c0,.25.03.42.09.51h.09v-.21l-.12-.3h-.06ZM29.64,27.07c-.05,0-.1.05-.1.1s.05.1.1.1.1-.05.1-.1-.05-.1-.1-.1h0ZM30.13,26.32c-.06,0-.11.05-.11.11s.05.11.11.11.11-.05.11-.11-.05-.11-.11-.11h0ZM18.74.87s0-.04,0-.06c0-.01-.02-.02-.03-.02-.02,0-.03,0-.04.01-.01.01-.01.03-.02.05l-.07,1.45s0,.05,0,.06c0,.01.02.02.04.02.02,0,.03,0,.03-.01,0-.01.02-.03.02-.06l.07-1.45h0ZM22.21,27.45s.11.04.12.03c.01,0,.03-.03.06-.08-.02-.03-.03-.04-.04-.05l-.02-.02h-.09s-.03.01-.03.03v.09h0ZM1.45,27.54v-.12h-.17s-.01.03-.01.03v.09s.18.05.18,0h0ZM28.74,12.84v-1.02c0-.15-.14-.18-.15-.09,0,.22.02.43,0,.67v.49c0,.1.15.11.15-.05h0ZM27.72,12.8v-.88c-.02-.13-.15-.15-.15-.08,0,.19.02.37,0,.57v.42c.01.09.15.1.14-.04h0ZM10.64,1.06l.07,1.03h.1s-.16-1.02-.16-1.02h0ZM27.45,10.17c0,.09.02.19.02.28,0,.13,0,.21.05.24.06-.02.1-.09.08-.21-.02-.12,0-.3,0-.42,0-.14-.16-.07-.15.1h0ZM6.51,11.2s0-.11.02-.16c.02-.07.02-.11-.01-.15-.05-.01-.1,0-.1.07,0,.07-.04.16-.04.23-.01.08.12.1.14.01h0ZM12.65,8.07c0-.12-.16-.03-.16.07v.06c0,.15.16.02.17-.05v-.08h0ZM26.58,10.52c0,.07.02.16.02.23,0,.11,0,.17.05.2.06-.02.1-.07.08-.17-.02-.1.01-.24,0-.34,0-.12-.15-.06-.14.08h0ZM25.77,10.81c0,.06.01.12.01.18,0,.09,0,.15.05.18.06-.01.09-.06.08-.14-.02-.09.01-.19,0-.27,0-.1-.14-.05-.13.06h0ZM5.68,11s0-.11.02-.16c.02-.07.02-.11-.01-.15-.05-.02-.09,0-.09.07,0,.07-.04.15-.04.22-.01.08.12.11.13.01h0ZM13.11,7.62c-.06,0-.05.14,0,.16.04.03.12,0,.09-.06,0-.07-.05-.1-.09-.1h0ZM13.03,7.11s.02-.02.04-.02c.05,0,.05-.15-.03-.15-.1,0-.11.16,0,.16h0ZM3.29,29.05h-.09s-.03.01-.03.03v.09s.01.03.03.03h.09c.06,0,.04-.15,0-.15h0ZM26.75,12.77v-.79c0-.12-.12-.14-.12-.07,0,.17.02.33,0,.52v.38c0,.08.12.09.12-.04h0ZM6.3,12.66c0,.06.05.18.1.01v-.79s-.09,0-.09,0c-.02,0-.01.57-.01.77h0ZM25.88,12.72v-.67c0-.1-.12-.13-.12-.07,0,.14.02.28,0,.44v.32c0,.07.12.08.12-.02h0ZM24.95,11.08c0,.05,0,.11,0,.16,0,.08,0,.12.03.14.05-.01.08-.05.08-.12,0-.07.02-.17,0-.24,0-.08-.12-.04-.12.06h0ZM12.87,6.21h-.06s-.03.01-.03.03v.12s0,.03.03.03h.06c.06,0,.04-.18,0-.18h0ZM14.23.84v1.03s.08,0,.08,0l-.08-1.02h0ZM16.47.82l-.06,1.03h.1s-.03-1.03-.03-1.03h0ZM25.05,12.73v-.57c0-.08-.1-.09-.1-.04,0,.12.01.24,0,.37v.28c0,.06.1.06.1-.03h0ZM12.88,8.65v.12s.01.03.03.03h.09v-.09s-.02-.06-.06-.06h-.06ZM.23,33.62h0s0,0,0,0H.24s0,0,0,0H.24s0,0,0,0H.24s0,0,0,0H.23s0,0,0,0H.23ZM.23,33.63h0s0,0,0,0H.23ZM.25,33.62H.25s0,0,0,0H.25s0,0,0,0H.25s0,0,0,0H.26s0,0,0,0H.25s0,0,0,0H.25ZM.26,33.64H.26s0,0,0,0H.25s0,0,0,0H.25s0,0,0,0H.24s0,0,0,0H.25s0,0,0,0H.25s0,0,0,0H.26Z"
     id="path6"
     style="stroke:#f5b42f;stroke-opacity:1;fill:#f5b42f;fill-opacity:1" />
  <path
     class="cls-2"
     d="M51.99,1.03h.43c.49.06,1.02.12,1.51.26.43.12.86.39,1.31.46.51.07,1.07-.03,1.71,0,.35.02,1.49.02,1.51.29.04.41-1.13.18-1.37.31.1.08.38-.05.46,0,.68.36,1.07,1.12,1.03,2.08-.04.83-.62,1.42-1.03,1.85h5.9v.03c-.47,1.06-.92,2.16-1.4,3.31-.15.36-.42.78-.46,1.11-.03.28.06.62.09.94.39,4.97-.14,9.73-1.6,13.34-1.58,3.92-4.09,6.59-7.72,8.49h-.03c-5.76-3.55-9.29-9.59-9.29-18.9,0-.95.04-1.93.14-2.88.03-.29.14-.63.11-.88-.03-.28-.38-.88-.51-1.17-.53-1.14-1.03-2.32-1.57-3.42v-.03c1.94-.01,3.81.05,5.76.03-.05-.13-.16-.2-.26-.31-.29-.34-.54-.76-.66-1.23-.23-.92.23-1.69.66-2.11.08-.08.27-.2.2-.26-.29-.06-.75.11-.74-.23,0-.3.93-.3,1.37-.34.85-.09,1.54-.1,2.17.03.6-.41,1.34-.69,2.28-.77ZM50.25,1.95c.59.21,1.17.43,1.65.74-.06.1-.09.23-.17.31-.98-.47-2.12-1.07-3.59-.86,2.2.41,3.5,1.73,4.19,3.65.78-1.75,1.95-3.12,3.93-3.68-.92-.04-1.57.12-2.19.34-.47.17-.88.43-1.34.6-.37-.33.4-.62.71-.77.4-.19.76-.3,1.03-.4-1.12-.51-3.21-.68-4.22.06ZM57.03,2.37s-.08,0-.09.03c.03,0,.08,0,.09-.03ZM54.69,6.25c.68.03,1.46.16,2.08.03.61-.13,1.24-1.08,1.37-1.6.27-1.12-.42-1.98-1.31-2.28-.22.07-.51.08-.68.2.58.23,1.07.69,1.14,1.37.22,2.18-3.33,2.59-3.88.63-.29.52-.59,1.05-.8,1.65.71.02,1.39-.03,2.08,0ZM47.54,2.52c-.6.29-1.16.81-1.17,1.65,0,.92.69,1.7,1.34,2.08h4.36c-.17-.61-.41-1.14-.74-1.6-.51,1.83-3.85,1.52-3.85-.48,0-.8.51-1.19,1.03-1.54-.31-.09-.72-.23-.97-.11ZM55.52,4.05c.41-.03.49-1.01.2-1.34-.19.1-.39.2-.6.29-.07.43,0,1.08.4,1.05ZM49.53,4.14c.32-.02.33-.52.37-.88-.17-.2-.45-.27-.68-.4-.17.43-.09,1.3.31,1.28ZM42.55,7.05c.4.98.78,1.97,1.17,2.96h17.36c.31-.7.56-1.55.83-2.28.09-.25.25-.48.23-.71-6.51-.04-13.05-.04-19.58-.06-.05.01,0,.04,0,.09ZM44.01,10.81c-.64,4.9.04,9.84,1.43,13.4,1.43,3.66,3.86,6.46,6.93,8.38,3.22-1.83,5.63-4.55,7.1-8.24,1.43-3.59,1.87-8.61,1.4-13.62h-16.82s-.03.05-.03.09Z"
     id="path8"
     style="stroke:#f5b42f;stroke-opacity:1;fill:#f5b42f;fill-opacity:1" />
  <path
     class="cls-2"
     d="M53.35,7.5c.56.63.76,1.62,1.48,2.08h-1.31c.02-.12.27-.01.31-.11,0-.22-.15-.29-.2-.46h-1c-.29.23-.24.54.17.57h-.94c.39-.16.61-.61.88-1.05.23-.38.43-.73.6-1.03ZM52.73,8.87h.8c-.13-.23-.22-.5-.43-.66-.11.23-.28.4-.37.66Z"
     id="path10"
     style="stroke:#f5b42f;stroke-opacity:1;fill:#f5b42f;fill-opacity:1" />
  <path
     class="cls-2"
     d="M43.69,7.53h1.48c-.06.12-.36,0-.4.14.11.5-.17,1.26.06,1.6.2.3.88.29,1.11,0,.33-.41.01-1.09.09-1.57-.02-.16-.31-.05-.37-.17h.97c-.06.11-.31.04-.37.14-.12.51.09,1.1-.09,1.51-.21.5-1.73.66-2.02.03-.2-.44.03-.88-.06-1.51-.02-.17-.34-.04-.4-.17Z"
     id="path12"
     style="stroke:#f5b42f;stroke-opacity:1;fill:#f5b42f;fill-opacity:1" />
  <path
     class="cls-2"
     d="M47.8,7.53c.38.05.66-.07.94,0,.24.06.55.43.74.6.26.23.46.45.68.63-.03-.55.16-1.23-.4-1.23h.97c-.07.11-.32.04-.37.17-.07.58-.01,1.28-.03,1.91-.72-.49-1.29-1.14-1.97-1.68.02.48-.04,1.03.03,1.45.02.18.32.08.4.2h-1c.07-.1.29-.05.37-.14.06-.5.01-1.11.03-1.65-.06-.16-.28-.16-.4-.26Z"
     id="path14"
     style="stroke:#f5b42f;stroke-opacity:1;fill:#f5b42f;fill-opacity:1" />
  <path
     class="cls-2"
     d="M56.06,7.53h1.11c.25.45.53.88.77,1.34.29-.41.53-.88.77-1.34h1.17c-.04.12-.31.02-.37.11-.06.53-.01,1.19-.03,1.77.02.17.34.04.4.17h-1.48c.04-.12.31-.02.37-.11.06-.52.01-1.17.03-1.74-.39.59-.67,1.3-1.11,1.85-.34-.63-.69-1.25-1.08-1.82.09.44-.13,1.19,0,1.57.07.2.24.15.4.26h-.94c.11-.1.35-.06.4-.23-.02-.54.04-1.16-.03-1.65,0-.17-.31-.05-.37-.17Z"
     id="path16"
     style="stroke:#f5b42f;stroke-opacity:1;fill:#f5b42f;fill-opacity:1" />
  <path
     class="cls-2"
     d="M47.11,9.16c.17-.04.42,0,.43.2.03.61-1.21-.02-.43-.2Z"
     id="path18"
     style="stroke:#f5b42f;stroke-opacity:1;fill:#f5b42f;fill-opacity:1" />
  <path
     class="cls-2"
     d="M51.22,9.16c.17-.04.42,0,.43.2.03.61-1.21-.02-.43-.2Z"
     id="path20"
     style="stroke:#f5b42f;stroke-opacity:1;fill:#f5b42f;fill-opacity:1" />
  <path
     class="cls-2"
     d="M55.35,9.16c.17-.04.42,0,.43.2.03.61-1.21-.02-.43-.2Z"
     id="path22"
     style="stroke:#f5b42f;stroke-opacity:1;fill:#f5b42f;fill-opacity:1" />
  <path
     class="cls-2"
     d="M60.39,9.16c.17-.04.42,0,.43.2.03.61-1.21-.02-.43-.2Z"
     id="path24"
     style="stroke:#f5b42f;stroke-opacity:1;fill:#f5b42f;fill-opacity:1" />
  <path
     class="cls-2"
     d="M59.17,13.97c.59-.12,1.35.11,1.05.83-.25.61-1.95.4-1.51-.54.06-.14.19-.23.46-.29Z"
     id="path26"
     style="stroke:#f5b42f;stroke-opacity:1;fill:#f5b42f;fill-opacity:1" />
  <path
     class="cls-2"
     d="M45.35,15.94c.22.07.42.17.66.23-.19.12-.4.22-.63.31.02-.21-.05-.33-.03-.54Z"
     id="path28"
     style="stroke:#f5b42f;stroke-opacity:1;fill:#f5b42f;fill-opacity:1" />
  <path
     class="cls-2"
     d="M48.59,18.36c.03-.06.18-.01.26-.03-.03.06-.18.01-.26.03Z"
     id="path30"
     style="stroke:#f5b42f;stroke-opacity:1;fill:#f5b42f;fill-opacity:1" />
  <path
     class="cls-2"
     d="M49.08,18.36c.03-.06.18-.01.26-.03-.03.06-.18.01-.26.03Z"
     id="path32"
     style="stroke:#f5b42f;stroke-opacity:1;fill:#f5b42f;fill-opacity:1" />
  <path
     class="cls-2"
     d="M55.61,18.36c0-.06.12-.01.17-.03,0,.06-.12.01-.17.03Z"
     id="path34"
     style="stroke:#f5b42f;stroke-opacity:1;fill:#f5b42f;fill-opacity:1" />
  <path
     class="cls-2"
     d="M48.39,18.39s.05-.02.09-.03c0,.03-.05.02-.09.03Z"
     id="path36"
     style="stroke:#f5b42f;stroke-opacity:1;fill:#f5b42f;fill-opacity:1" />
  <path
     class="cls-2"
     d="M49.56,18.36c-.06.09-.18-.03,0,0h0Z"
     id="path38"
     style="stroke:#f5b42f;stroke-opacity:1;fill:#f5b42f;fill-opacity:1" />
  <path
     class="cls-2"
     d="M48.25,18.42s.03-.02.06-.03c0,.03-.03.02-.06.03Z"
     id="path40"
     style="stroke:#f5b42f;stroke-opacity:1;fill:#f5b42f;fill-opacity:1" />
  <path
     class="cls-2"
     d="M49.62,18.42s.05-.02.09-.03c0,.03-.05.02-.09.03Z"
     id="path42"
     style="stroke:#f5b42f;stroke-opacity:1;fill:#f5b42f;fill-opacity:1" />
  <path
     class="cls-2"
     d="M49.76,18.45s.03-.02.06-.03c0,.03-.03.02-.06.03Z"
     id="path44"
     style="stroke:#f5b42f;stroke-opacity:1;fill:#f5b42f;fill-opacity:1" />
  <path
     class="cls-2"
     d="M49.85,18.48s.02.02,0,0h0Z"
     id="path46"
     style="stroke:#f5b42f;stroke-opacity:1;fill:#f5b42f;fill-opacity:1" />
  <path
     class="cls-2"
     d="M49.96,18.5s.02.02,0,0h0Z"
     id="path48"
     style="stroke:#f5b42f;stroke-opacity:1;fill:#f5b42f;fill-opacity:1" />
  <path
     class="cls-2"
     d="M50.08,18.56s.02.02,0,0h0Z"
     id="path50"
     style="stroke:#f5b42f;stroke-opacity:1;fill:#f5b42f;fill-opacity:1" />
  <path
     class="cls-2"
     d="M51.76,18.88c.26.09.75.14,1,0-.05.4-.31.83-.4,1.28-.23-.4-.42-.84-.6-1.28Z"
     id="path52"
     style="stroke:#f5b42f;stroke-opacity:1;fill:#f5b42f;fill-opacity:1" />
  <path
     class="cls-2"
     d="M50.45,21.04h.54c-.14.21-.11.86-.03,1.11.3.02.41-.14.48-.34.07.13-.07.31-.09.46h-.91c.14-.24.14-.98,0-1.23Z"
     id="path54"
     style="stroke:#f5b42f;stroke-opacity:1;fill:#f5b42f;fill-opacity:1" />
  <path
     class="cls-2"
     d="M51.62,21.04h.94c.02.14.09.23.09.4-.1-.18-.23-.32-.54-.28-.05.05-.02.19-.03.28.15,0,.31.02.29-.14.09.08.04.3.11.4-.09.03-.13-.23-.37-.14-.07.11,0,.35-.03.51.22.23.57-.05.63-.26.07.13-.07.31-.09.46h-1c.14-.24.14-.98,0-1.23Z"
     id="path56"
     style="stroke:#f5b42f;stroke-opacity:1;fill:#f5b42f;fill-opacity:1" />
  <path
     class="cls-2"
     d="M52.81,21.04h.63c-.15.08-.03.36.06.37.1,0,.25-.25.11-.37h.4c-.17.14-.29.32-.4.51.11.28.27.51.46.71h-.66c.2-.17-.06-.34-.11-.51-.09.14-.31.32-.17.51h-.37c.18-.18.29-.41.43-.63-.08-.25-.23-.42-.37-.6Z"
     id="path58"
     style="stroke:#f5b42f;stroke-opacity:1;fill:#f5b42f;fill-opacity:1" />
  <path
     class="cls-2"
     d="M49.71,21.67c-.01.1-.07.16-.11.23h-.48c0-.28.32-.23.6-.23Z"
     id="path60"
     style="stroke:#f5b42f;stroke-opacity:1;fill:#f5b42f;fill-opacity:1" />
  <path
     class="cls-2"
     d="M55.26,21.67c-.01.1-.07.16-.11.23h-.48c0-.28.32-.23.6-.23Z"
     id="path62"
     style="stroke:#f5b42f;stroke-opacity:1;fill:#f5b42f;fill-opacity:1" />
  <path
     class="cls-2"
     d="M52.47,23.44c.19-.39.94-.35,1.37-.2.12.16.28.29.51.26v2.42c-.52.02-.99-.15-1.45-.11-.12,0-.23.08-.34.09-.15,0-.27-.07-.43-.09-.47-.04-.98.11-1.48.14-.09-.74.03-1.68-.06-2.42.06-.07.24-.01.34-.03.14-.48,1.36-.51,1.54-.06ZM52.64,23.35c-.35.35.03,1.28-.11,1.91.21-.16.87-.24,1.25-.09v-1.88c-.43-.02-.9-.18-1.14.06ZM52.44,23.58c-.12-.5-.83-.34-1.25-.28.02.62-.04,1.31.03,1.88.16-.04.37-.09.57-.09.32,0,.55.16.66.14-.08-.59.12-1.18,0-1.65ZM53.87,23.44s-.01-.01,0,0h0ZM50.96,25.46c.26-.43.12-1.42.11-2.02-.26.43-.12,1.42-.11,2.02ZM54.04,25.46c-.08-.65.17-1.62-.17-2,.06.66-.16,1.6.17,2ZM54.1,25.69c-.48,0-.91-.11-1.28-.09-.14.01-.24.09-.34.09-.1,0-.19-.08-.31-.09-.43-.03-.81.09-1.31.09.05-.57-.06-1.46-.03-1.97,0-.04.15-.18,0-.14-.2.03-.11.32-.11.46,0,.58,0,1.24,0,1.77.52.05.99-.13,1.45-.09.11.01.22.09.34.09.13,0,.24-.08.37-.09.44-.03.91.11,1.4.11-.04-.74.07-1.62-.06-2.25-.03-.02-.08-.04-.14-.03.11.59.06,1.5.03,2.14ZM51.16,25.26c-.04.11-.11.19-.14.31.5.03,1.05-.17,1.43,0-.07-.52-.85-.38-1.28-.31ZM52.53,25.57c.39-.15.99,0,1.45.03-.04-.13-.1-.24-.17-.34-.49-.06-1.21-.22-1.28.31Z"
     id="path64"
     style="stroke:#f5b42f;stroke-opacity:1;fill:#f5b42f;fill-opacity:1" />
  <path
     class="cls-2"
     d="M47.97,24.95c-.14.18-.25.39-.46.51-.07-.15-.14-.3-.23-.43.19-.07.45-.06.68-.09Z"
     id="path66"
     style="stroke:#f5b42f;stroke-opacity:1;fill:#f5b42f;fill-opacity:1" />
  <path
     class="cls-2"
     d="M47.94,27.23c.33-.37.79-.61,1.17-.94.77.42.24,1.49-.51,1.45-.34-.02-.47-.28-.66-.51Z"
     id="path68"
     style="stroke:#f5b42f;stroke-opacity:1;fill:#f5b42f;fill-opacity:1" />
  <path
     class="cls-2"
     d="M56.26,28c-.44-.25-.78-.6-1.2-.88.22-.95,1.67-.54,1.54.37-.03.22-.19.36-.34.51Z"
     id="path70"
     style="stroke:#f5b42f;stroke-opacity:1;fill:#f5b42f;fill-opacity:1" />
  <path
     class="cls-2"
     d="M50.45,29.96c.27-.43.63-.78.91-1.2.23.13.51.27.57.51.09.4-.3.97-.71,1.03-.33.05-.51-.16-.77-.34Z"
     id="path72"
     style="stroke:#f5b42f;stroke-opacity:1;fill:#f5b42f;fill-opacity:1" />
  <path
     class="cls-2"
     d="M44.52,11.09c5.24,0,10.5.04,15.82.03.62,4.67.12,9.59-1.23,13.03-1.38,3.52-3.8,6.14-6.84,7.89-2.8-1.95-5.07-4.65-6.41-8.15-1.3-3.38-2.01-8.05-1.37-12.71,0-.04,0-.08.03-.09ZM55.26,15.34s.01-.06.03-.09c-.06-.02-.11-.09-.17-.03,0,.09.07.1.14.11ZM49.53,16.82c.1.05.13.17.2.26-.06.08-.05.14,0,.23-.06.02.13,0,.11.11-.04.23.13.3.17.46.01.05-.02.14,0,.2.03.08.14.12.17.23.01.05-.02.14,0,.2.05.12.16.15.17.29.01.16-.1.42-.17.51-.64.95-2.63.55-2.62-.6,0-.13.11-.18.2-.29-.08-.2.07-.3.14-.43,0-.12.03-.34.17-.4-.05-.22.06-.31.17-.43-.08-.2.07-.3.14-.43.05-.07-.04-.16.03-.26.08-.08.06-.01.11-.14.1-.35.2-.7.43-1,.12-.04.11-.05.26-.03.08-.03.07-.16.17-.17.09-.06.1-.03.23-.03.38-.31.76-.44,1.25-.66.09.01.01-.14.11-.11.3-.02.35-.28.68-.26.07-.12.16-.22.37-.2.03-.11-.05-.18,0-.23-1.53,0-3.29,0-4.87-.03-.68,6.78,1.3,12.35,5.16,15.19,3.44-2.6,5.61-6.88,5.33-12.97-.03-.74-.12-1.45-.2-2.19-1.67.02-3.25-.04-4.9-.03-.02.17,0,.3.09.37-.06.02-.09-.08-.09.03v1.37c.93-.02,1.94.04,2.82-.03h-.14c-.12-.15-.32-.14-.48-.23-.07-.04-.1-.13-.17-.17-.05-.02-.15,0-.23-.03-.07-.03-.11-.14-.17-.17-.07-.03-.16,0-.23-.03-.1-.05-.15-.18-.26-.23.03.02-.05.06-.09.06-.14-.03-.26-.23-.37-.23-.13,0-.15-.11-.26-.17-.11-.06-.38.02-.31-.17.03,0,.12.23.17.09.12-.08-.22-.1-.14-.14.18.03.27.17.4.23.01,0,.06-.04.09-.03.18.05.25.35.4.2.31.3.72.33,1.05.6.15-.02.31.1.4.23.2-.08.29.1.4.2.14-.05.21.07.31-.03-.07.19.09.3.17.43.05.09,0,.11,0,.23.2.12.16.47.31.63.06.05.01.13,0,.2.05.08.15.12.17.23.11.5.42,1,.51,1.48.3.22.08.71-.11.91-.82.87-3.07.15-2.28-1-.02-.16.01-.32.17-.43-.07-.2.05-.31.14-.43,0-.12.03-.38.17-.34-.08-.25.21-.46.17-.74.09-.15.3-.3.28-.46-.1-.12-.06.24-.14.14.11-.21.19-.34.23-.57h-2.99v3.19c-.13.06-.37.09-.51-.03v-3.16h-2.88c.02.29.13.4.23.66-.08.01-.07-.3-.11-.14-.12.16.38.34.26.68ZM59.03,15.48c1.63.69,1.94-2.23.2-1.94-.93.16-.9,1.64-.2,1.94ZM44.72,14.51c.12,0,.03-.2.11-.23.18-.05.54-.05.71,0,.02.17-.04.27-.03.43-.06.06-.26-.04-.23.11.13.03.52.08.57,0,.05-.16-.18-.03-.17-.14.02-.12-.04-.32.03-.4.2.02.47-.03.63.03,0,.21,0,.43-.06.57-.07.02-.25-.06-.23.06.04.14.31.05.43.11-.06-.47.11-1.01-.03-1.37-.11,0-.03.2-.14.2-.5,0-1.02.02-1.48-.03-.06-.06.03-.28-.14-.23.01.21-.1.67.03.88ZM54.75,14.97s0,.09-.03.11c.04,0,.12.11.14.03-.05-.01.01-.03.03-.06-.06-.02-.09-.06-.14-.09ZM55.83,15.68s0,.06-.03.06c0-.02-.02-.03-.06-.03.01.07.04.13.09.17,0-.02.02-.03.06-.03,0-.07-.02-.14-.06-.17ZM55.69,15.6c-.38,1-.74,1.98-1.14,2.94.31-.07.68-.23,1.03-.17-.36.04-.71.09-1,.2-.01.16-.13.22-.23.28.41.64,2.19.59,2.68.06-.14-.02-.16-.16-.17-.31-.27-.16-.71-.15-1.03-.26.39.03.75.09,1.03.23-.43-.95-.78-2.03-1.17-2.96ZM55.66,15.65s-.06-.01-.09-.03c-.01.05-.06.07-.06.14.04,0,.06.01.09.03.01-.05.06-.07.06-.14ZM52.04,15.54c.01.23.43.34.51.09.15-.43-.53-.45-.51-.09ZM49.05,15.71c0,.07.03.12.09.14,0-.02.02-.03.06-.03,0-.08-.04-.14-.14-.11ZM49.51,16.82c-.14-.08-.18-.27-.17-.43-.09-.1-.21-.22-.14-.4-.18-.08-.13-.38-.29-.48.08.2-.08.29-.14.43,0,.21-.16.47-.26.68.02-.03.13-.15,0-.14-.1-.04-.02.1-.09.09-.02.1.11.05.11.11-.21.25-.19.66-.43.91.09.33-.24.35-.14.6-.06.1-.11.21-.2.29.11.14-.05.27-.14.37.44.6,2.1.54,2.65.09-.05-.13-.19-.26-.11-.43-.12-.08-.2-.2-.17-.43-.14-.09-.17-.26-.17-.43-.12-.09-.19-.22-.14-.4-.11-.09-.21-.19-.17-.43ZM48.91,15.63h-.11c-.03.08-.04.16.06.17,0-.08.06-.09.06-.17ZM48.68,16.22c0-.08.06-.09.06-.17-.17-.04-.17.15-.06.17ZM49.36,15.17c0,.08.05.06,0,.11.07-.03.18,0,.17-.11-.08-.03-.09-.03-.17,0ZM49.65,15.11c-.04.21-.35.15-.46.29h2.85c-.02-.48.04-1.03-.03-1.45-.03.14-.19.17-.31.14-.1.1-.21.28-.4.2-.18.22-.51.26-.68.4.02-.06.13-.04.14-.11-.17-.08-.19.04-.2.14-.02-.16-.34.37-.43.14-.14.11-.2.3-.48.26ZM50.96,14.4s.02.08.06.09c.02-.06.13-.04.14-.11-.02,0-.06,0-.06-.03.02,0,.03,0,.03-.03-.07.01-.13.04-.17.09ZM51.39,14.23c.05.05.15,0,.17-.06-.05,0-.06-.02-.03-.06-.07.02-.15.02-.14.11ZM51.79,14.03c.06.06.18,0,.14-.11-.07.02-.15.02-.14.11ZM51.16,14.34s-.01-.01,0,0h0ZM49.14,15.37c-.16-.07-.14.1,0,0h0ZM44.69,16c.13.02,0-.22.11-.2.15.01.29.04.37.11.07.17,0,.48.06.66-.15.03-.22.14-.4.14-.09-.01,0-.21-.14-.17-.02.2-.04.65.06.83.17-.29.54-.4.97-.6.29-.13.84-.3.8-.6-.6-.18-1.16-.4-1.74-.6-.05-.05-.01-.18-.11-.17h-.06c.03.2-.02.48.09.6ZM49.11,15.68s-.01-.01,0,0h0ZM58.51,16.88c.1,0,.03-.18.11-.2.23,0,.47,0,.63.06-.05.25-.02.57-.11.77-.23,0-.44-.04-.63-.09-.02-.07.06-.25-.06-.23-.09.19-.17.68-.09.86.12,0,.04-.19.14-.2.52.04,1.04.08,1.51.17.02.08-.06.27.09.23.03-.24.15-.68.06-.86-.12,0-.06.17-.14.2-.25-.01-.51,0-.68-.09.03-.26,0-.58.11-.77.23.04.49.04.68.11.02.06-.05.22.06.2.11-.17.18-.67.09-.86-.11.02-.03.24-.17.23-.48-.06-.99-.09-1.45-.17-.08-.07.04-.24-.06-.23h-.09c.06.3-.17.72,0,.86ZM46.31,17.59c-.55-.48-1.45-.09-1.54.6-.04.29-.05.85.37,1-.14-.29-.25-.7-.11-1,.35-.74,1.87-.43,1.4.66-.04.1-.28,0-.29.14.06.12.31.03.46.06.14-.58.02-1.19-.29-1.45ZM58.34,18.9c-.53.92-.08,1.97.85,1.85.47-.06.85-.51.83-1.17,0-.18,0-.43-.26-.48.2.7-.09,1.25-.71,1.25-.64,0-1.05-.7-.54-1.23.1,0,.23.02.26-.06-.07-.13-.32-.08-.43-.17ZM46.57,19.3c-.41.24-1.1.06-1.43.34-.44.39-.12,1.38.51,1.4.44.01.7-.19,1.17-.17.05.09.12.22.09.31-.47.15-.95.29-1.43.43-.11,0-.14-.19-.23-.06.17.38.26.85.4,1.25.14-.07.41-.01.48-.14-.04-.1-.22-.04-.34-.06-.08-.2-.17-.38-.2-.63.47-.13.92-.29,1.43-.4.1.02.07.27.2.17-.07-.38-.23-.93-.37-1.34-.11,0-.02.21-.09.26-.6.15-1.73.42-1.54-.48.1-.46.92-.3,1.37-.46.12,0,.04.23.2.2-.01-.21-.04-.65-.17-.83h-.06v.2ZM57.49,22.52c.07.08.05-.17.17-.14.53.19,1.2.25,1.51.66.14-.43.34-.8.43-1.28-.14,0-.34-.22-.4-.11-.09.13.22.11.2.26-.08.19-.09.44-.23.57-.2-.08-.45-.12-.63-.23.04-.18.07-.36.2-.46.05,0,.18.12.17,0,.01-.1-.5-.31-.54-.17-.02.11.17.02.14.14-.02.19-.07.34-.17.46-.16-.11-.41-.14-.57-.26.1-.18.12-.43.26-.57.07-.01.21.11.2,0,.04-.12-.26-.14-.34-.23-.11.45-.43,1-.4,1.37ZM47.37,22.44c-.1.08-.28.08-.34.2.05.13.2,0,.29,0,.06.16.14.29.2.46-.47.18-.91.38-1.4.54-.11,0-.09-.25-.2-.17.03.22.18.71.34.8.09-.05-.03-.14,0-.23.43-.23.92-.39,1.4-.57.05.14.12.26.14.43-.02.11-.22.05-.2.2.14.06.3-.07.46-.09-.25-.5-.39-1.12-.68-1.57ZM57.14,23.18c-.15.26-.38.88-.43,1.08.13.02.1-.13.2-.14.46.22.98.39,1.37.68,0,.05-.12.18,0,.17.14-.08.38-.59.34-.74-.09-.09-.07.18-.2.14-.46-.21-.92-.41-1.34-.66.04-.61.99-.33.66.26.41-.02.75-.1,1.14-.14.07-.16.16-.29.2-.48-.12-.07-.09.07-.2.09-.31.05-.63.1-.94.14.06-.67-.59-.75-.8-.4ZM56.09,25.29c-.12.21-.33.41-.29.6.08.08.08-.14.2-.11.47.31,1.08.48,1.37.97.18-.43.47-.74.66-1.17-.14-.06-.27-.26-.4-.23-.03.18.17.13.17.28-.1.19-.18.39-.31.54-.21-.1-.42-.21-.6-.34.06-.16.14-.3.26-.4.11-.02.15.11.23.03-.09-.2-.32-.25-.51-.34-.08.13.1.12.11.23-.08.14-.13.31-.26.4-.18-.11-.36-.21-.51-.34.1-.18.19-.38.34-.51.1,0,.16.12.23.06-.03-.17-.19-.21-.31-.28-.13.18-.24.41-.37.63ZM47.8,24.8c-.38.04-.82.07-1.2.09-.08-.04-.11-.16-.23-.09.11.19.17.41.31.57.12-.07-.03-.21.03-.28.14-.01.25-.06.4-.06.12.19.21.4.31.6-.11.1-.19.23-.31.31-.06-.04-.07-.23-.17-.14.04.2.27.66.4.74.11-.03,0-.11,0-.2.38-.5.82-.94,1.17-1.48-.15-.21-.47-.08-.71-.06ZM48.88,25.97c-.41.3-.79.63-1.23.91-.04-.04-.13-.08-.17-.03.41.45.58,1.19,1.4,1.17.51-.01,1.04-.41.94-1-.06-.4-.8-1.09-.97-1.34-.12.09.04.14.03.28ZM56.83,27.34c.07-.55-.25-1.08-.74-1.17-.62-.12-.87.42-1.11.74-.17.22-.36.43-.4.63.11.08.13-.13.26-.11.4.31.83.6,1.2.94,0,.07-.06.12,0,.17.22-.33.73-.69.8-1.2ZM51.05,28.54c-.3.4-.6.81-.94,1.17-.09.01-.11-.06-.17,0,.4.28.68.76,1.23.83.72.09,1.36-.58,1.08-1.23-.16-.37-1.04-.84-1.28-1.05-.09.15.1.13.09.28ZM53.58,28.51c-.32.34-.75.58-1.03.97.1.08.12-.09.26-.06.35.37.7.74,1,1.17-.04.07-.06.09-.03.17.36-.27.67-.58,1.03-.86-.08-.15-.14-.31-.31-.37-.07.11.08.19.09.31-.14.16-.3.31-.48.43-.15-.19-.33-.33-.46-.54.12-.09.22-.22.37-.29.07.03.12.17.23.09-.04-.12-.26-.44-.43-.43-.07.08.08.11.09.2-.1.12-.23.23-.37.31-.16-.14-.27-.32-.4-.48.16-.14.3-.31.51-.4.05.06.11.19.2.11-.04-.15-.13-.27-.26-.34ZM54.35,14.77c0,.05-.03.06-.03.11.04,0,.12.11.14.03-.05-.01.01-.03.03-.06-.06-.02-.09-.06-.14-.09ZM56.15,16.54s-.03.04-.06.06c0,.07.03.12.09.14,0-.02.02-.03.06-.03-.02-.06-.02-.15-.09-.17ZM56,16.31s.02-.03.06-.03c0-.1-.08-.11-.14-.14.02.06.02.15.09.17ZM55.35,16.48h-.11c-.03.08-.04.16.06.17,0-.08.06-.09.06-.17ZM55.12,17.08c0-.08.06-.09.06-.17-.17-.04-.17.15-.06.17ZM49.36,16.54c.01.07.04.13.09.17,0-.02.02-.03.06-.03,0-.1-.02-.17-.14-.14ZM49.93,15.03s-.01-.06-.03-.09c-.07,0-.12.03-.14.09.04,0,.03.05.06.06,0-.05.1-.02.11-.06ZM50.16,14.77c0,.05.02.1.06.11.02-.04.06-.05.11-.06,0-.12-.1-.08-.17-.06ZM50.76,14.54s-.01-.01,0,0h0ZM48.42,16.88c-.08,0-.06.05-.11,0,.01.06-.09.15-.03.17,0-.04.06-.02.09,0,0-.08.06-.09.06-.17ZM48.11,17.45s.06.01.09.03c0-.05.1-.15.03-.17-.01.05-.04,0-.09,0,.02.08-.04.07-.03.14ZM48.05,17.74s-.03.02-.06,0c-.01.05-.06.07-.06.14.04,0,.06.01.09.03,0-.04.11-.13.03-.17ZM47.91,18.16c-.11-.02-.13.05-.11.14.1.02.11-.06.11-.14ZM49.93,17.96s.02-.03.06-.03c0-.17-.07-.1-.14-.17,0,.1.04.15.09.2ZM47.74,18.59c-.09-.04-.15.09-.09.11,0-.03.05-.07.06-.03-.04.01-.06.04-.06.09.09,0,.08-.09.09-.17ZM50.3,18.82c.01-.11-.06-.13-.11-.17,0,.09.02.17.11.17ZM50.1,18.39s.02-.03.06-.03c-.02-.07-.02-.15-.11-.14-.05.05,0,.15.06.17ZM49.76,17.36s-.02.03-.06.03c0,.09.03.15.09.17,0-.02.02-.03.06-.03-.02-.06-.02-.15-.09-.17ZM49.59,16.94c-.08.06-.03.14.03.2,0-.02.02-.03.06-.03-.02-.06-.02-.15-.09-.17ZM54.89,17.48c0-.05.1-.02.11-.06,0-.04.01-.11-.03-.11-.01.05-.03-.01-.06-.03.01.07-.1.16-.03.2ZM54.86,17.74h-.11c-.03.08-.04.16.06.17,0-.08.06-.09.06-.17ZM54.49,18.62c0,.07-.1.05-.09.14.08.02.15-.12.09-.14ZM54.44,18.65s.05-.06,0-.09c0,.03-.05.06,0,.09ZM54.64,18.33c.02-.05.05-.1.06-.17-.15-.02-.17.15-.06.17ZM57.03,18.85c0-.11-.05-.16-.14-.17.03.07.02.19.14.17ZM56.8,18.22s-.08.02-.09.06c.06.02.02.13.09.14,0-.02.02-.03.06-.03,0-.07-.02-.14-.06-.17ZM56.57,17.85c0,.07.03.12.09.14,0-.02.02-.03.06-.03,0-.08-.04-.14-.14-.11ZM56.38,17.14v-.11s-.14-.07-.14,0c.07.02.02.15.14.11ZM56.49,17.59s0-.07.06-.06c0-.08-.04-.14-.14-.11.01.07.04.13.09.17ZM53.92,14.57s0,.09-.03.11c.07,0,.09.04.14.06,0-.05.03-.06.03-.11-.07,0-.09-.04-.14-.06ZM54.27,14.83s-.01-.01,0,0h0ZM53.53,14.37c0,.05-.03.06-.03.11.07,0,.09.04.14.06-.04-.09.09-.02.06-.11-.09.01-.11-.04-.17-.06ZM53.27,14.23c-.07,0-.09-.04-.14-.06,0,.05-.03.06-.03.11.07.02.18.07.17-.06Z"
     id="path74"
     style="stroke:#f5b42f;stroke-opacity:1;fill:#f5b42f;fill-opacity:1" />
</svg>
