<?xml version="1.0" encoding="UTF-8" standalone="no"?>
<svg
   width="16"
   height="16"
   fill="currentColor"
   class="bi bi-journals"
   viewBox="0 0 16 16"
   version="1.1"
   id="svg2"
   sodipodi:docname="journals.svg"
   inkscape:version="1.4 (86a8ad7, 2024-10-11)"
   xmlns:inkscape="http://www.inkscape.org/namespaces/inkscape"
   xmlns:sodipodi="http://sodipodi.sourceforge.net/DTD/sodipodi-0.dtd"
   xmlns="http://www.w3.org/2000/svg"
   xmlns:svg="http://www.w3.org/2000/svg">
  <defs
     id="defs2" />
  <sodipodi:namedview
     id="namedview2"
     pagecolor="#ffffff"
     bordercolor="#000000"
     borderopacity="0.25"
     inkscape:showpageshadow="2"
     inkscape:pageopacity="0.0"
     inkscape:pagecheckerboard="0"
     inkscape:deskcolor="#d1d1d1"
     inkscape:zoom="8.7504464"
     inkscape:cx="-25.255854"
     inkscape:cy="-8.799551"
     inkscape:window-width="1920"
     inkscape:window-height="1005"
     inkscape:window-x="-9"
     inkscape:window-y="-9"
     inkscape:window-maximized="1"
     inkscape:current-layer="svg2" />
  <path
     d="M5 0h8a2 2 0 0 1 2 2v10a2 2 0 0 1-2 2 2 2 0 0 1-2 2H3a2 2 0 0 1-2-2h1a1 1 0 0 0 1 1h8a1 1 0 0 0 1-1V4a1 1 0 0 0-1-1H3a1 1 0 0 0-1 1H1a2 2 0 0 1 2-2h8a2 2 0 0 1 2 2v9a1 1 0 0 0 1-1V2a1 1 0 0 0-1-1H5a1 1 0 0 0-1 1H3a2 2 0 0 1 2-2"
     id="path1"
     style="fill:#ffffff;fill-opacity:1" />
  <path
     d="M1 6v-.5a.5.5 0 0 1 1 0V6h.5a.5.5 0 0 1 0 1h-2a.5.5 0 0 1 0-1zm0 3v-.5a.5.5 0 0 1 1 0V9h.5a.5.5 0 0 1 0 1h-2a.5.5 0 0 1 0-1zm0 2.5v.5H.5a.5.5 0 0 0 0 1h2a.5.5 0 0 0 0-1H2v-.5a.5.5 0 0 0-1 0"
     id="path2"
     style="fill:#ffffff;fill-opacity:1" />
</svg>
